<svg width="64" height="64" viewBox="0 0 64 64" fill="none" xmlns="http://www.w3.org/2000/svg">
<path d="M47.1265 63.0624H6.8938C6.54855 63.0624 6.2688 62.7825 6.2688 62.4374V17.6122L47.7514 13.9121V62.4374C47.7515 62.7825 47.4717 63.0624 47.1265 63.0624Z" fill="#EEF5F6"/>
<path d="M13.5548 17.6124H6.2688V11.542C6.2688 11.1969 6.54855 10.917 6.8938 10.917H13.5547V17.6124H13.5548Z" fill="#B3DAFE"/>
<path d="M52.1163 58.0724H11.8835C11.5384 58.0724 11.2585 57.7925 11.2585 57.4474V12.6222L52.7412 8.65137V57.4474C52.7413 57.7925 52.4614 58.0724 52.1163 58.0724Z" fill="#FFE177"/>
<path d="M17.9539 12.6231H11.2585V6.55273C11.2585 6.20761 11.5384 5.92773 11.8835 5.92773H17.9539V12.6231Z" fill="#6354B1"/>
<path d="M57.106 52.958L53.3562 53.083H16.8733C16.5282 53.083 16.2483 52.8031 16.2483 52.458V7.63287L53.9812 3.85938H57.606V52.458C57.606 52.8031 57.4512 52.958 57.106 52.958Z" fill="#EEF5F6"/>
<path d="M49.127 19.1435L45.4584 19.2685H24.8525C24.5074 19.2685 24.2275 18.9886 24.2275 18.6435V14.5957C24.2275 14.2506 24.5074 13.9707 24.8525 13.9707H45.4375L49.127 14.0957C49.4722 14.0957 49.627 14.2506 49.627 14.5957V18.6435C49.627 18.9886 49.4722 19.1435 49.127 19.1435Z" fill="#FFE177"/>
<path d="M30.0382 30.3252L28.1668 30.2002H26.9983C26.6532 30.2002 26.3733 30.4801 26.3733 30.8252V35.1621H30.5382V30.8252C30.5382 30.4801 30.3834 30.3252 30.0382 30.3252Z" fill="#B3DAFE"/>
<path d="M38.5096 26.8457L36.5312 26.7207H35.4697C35.1245 26.7207 34.8447 27.0006 34.8447 27.3457V35.1625H39.0096V27.3457C39.0096 27.0005 38.8549 26.8457 38.5096 26.8457Z" fill="#30A698"/>
<path d="M46.9812 24.0811L44.8579 23.9561H43.9414C43.5962 23.9561 43.3164 24.2359 43.3164 24.5811V35.1618H45.4814H47.4812V24.5811C47.4812 24.2358 47.3263 24.0811 46.9812 24.0811Z" fill="#FFE177"/>
<path d="M57.7312 7.63215V52.4571C57.7312 52.8034 57.4512 53.0821 57.1062 53.0821H53.3562C53.7012 53.0821 53.9812 52.8034 53.9812 52.4571V3.8584L57.7312 7.63215Z" fill="#DEECF1"/>
<path d="M57.606 7.63287H16.2483V1.5625C16.2483 1.21738 16.5282 0.9375 16.8733 0.9375H53.3562L57.106 1.0625C57.4513 1.0625 57.606 1.21738 57.606 1.5625V7.63287Z" fill="#30A698"/>
<path d="M57.7312 1.5625V7.6325H53.9812V1.5625C53.9812 1.2175 53.7012 0.9375 53.3562 0.9375H57.1062C57.4512 0.9375 57.7312 1.2175 57.7312 1.5625Z" fill="#2A776E"/>
<path d="M49.7524 14.5967V18.6442C49.7524 18.9892 49.4724 19.2692 49.1274 19.2692H45.3774C45.7224 19.2692 46.0024 18.9892 46.0024 18.6442V14.5967C46.0024 14.2517 45.7224 13.9717 45.3774 13.9717H49.1274C49.4724 13.9717 49.7524 14.2517 49.7524 14.5967Z" fill="#FFC344"/>
<path d="M47.6062 24.5811V35.1623H45.4812V24.5811C45.4812 24.2361 45.2012 23.9561 44.8562 23.9561H46.9812C47.3262 23.9561 47.6062 24.2361 47.6062 24.5811Z" fill="#FFC344"/>
<path d="M39.135 27.3447V35.1622H37.01V27.3447C37.01 26.9997 36.73 26.7197 36.385 26.7197H38.51C38.855 26.7197 39.135 26.9997 39.135 27.3447Z" fill="#2A776E"/>
<path d="M30.6636 30.8252V35.1627H28.7886V30.8252C28.7886 30.4802 28.5086 30.2002 28.1636 30.2002H30.0386C30.3836 30.2002 30.6636 30.4802 30.6636 30.8252Z" fill="#8AC9FE"/>
<path d="M5.3313 62.4375C5.3313 63.2991 6.03217 64 6.8938 64H11.0865C11.6043 64 12.024 63.5802 12.024 63.0625C12.024 62.5448 11.6043 62.125 11.0865 62.125H7.2063V18.5499H10.321V45.1009C10.321 45.6186 10.7408 46.0384 11.2585 46.0384C11.7763 46.0384 12.196 45.6186 12.196 45.1009V13.5601H15.3108V52.4581C15.3108 53.3198 16.0117 54.0206 16.8733 54.0206H51.8037V57.1354H12.196V49.1867C12.196 48.669 11.7763 48.2492 11.2585 48.2492C10.7408 48.2492 10.321 48.669 10.321 49.1867V57.4479C10.321 58.3095 11.0219 59.0104 11.8835 59.0104H46.8139V62.125H15.1725C14.6548 62.125 14.235 62.5448 14.235 63.0625C14.235 63.5802 14.6548 64 15.1725 64H47.1265C47.9882 64 48.689 63.2991 48.689 62.4375V59.0103H52.1163C52.9778 59.0103 53.6788 58.3094 53.6788 57.4478V54.0205H57.106C57.9677 54.0205 58.6685 53.3196 58.6685 52.458V43.7181C58.6685 43.2004 58.2488 42.7806 57.731 42.7806C57.2133 42.7806 56.7935 43.2004 56.7935 43.7181V52.1455H17.1858V8.57038H56.7934V39.6324C56.7934 40.1501 57.2132 40.5699 57.7309 40.5699C58.2487 40.5699 58.6684 40.1501 58.6684 39.6324V1.5625C58.6684 0.700875 57.9675 0 57.1059 0H16.8733C16.0117 0 15.3108 0.700875 15.3108 1.5625V4.98975H11.8835C11.0219 4.98975 10.321 5.69062 10.321 6.55225V9.9795H6.8938C6.03217 9.9795 5.3313 10.6804 5.3313 11.542V62.4375ZM10.321 16.6749H7.2063V11.8545H10.321V16.6749ZM12.196 11.6851V6.86475H15.3108V7.63287V11.6851H12.196ZM17.1858 1.875H56.7934V6.69537H17.1858V1.875Z" fill="black"/>
<path d="M49.752 39.5225H24.2275C23.7098 39.5225 23.29 39.9422 23.29 40.46C23.29 40.9777 23.7098 41.3975 24.2275 41.3975H49.7519C50.2697 41.3975 50.6894 40.9777 50.6894 40.46C50.6895 39.9422 50.2698 39.5225 49.752 39.5225Z" fill="black"/>
<path d="M49.752 34.2243H48.5437V24.5811C48.5437 23.7194 47.8428 23.0186 46.9812 23.0186H43.9413C43.0797 23.0186 42.3788 23.7194 42.3788 24.5811V34.2243H40.0722V27.3449C40.0722 26.4833 39.3713 25.7824 38.5097 25.7824H35.4699C34.6083 25.7824 33.9074 26.4833 33.9074 27.3449V34.2243H31.6008V30.8249C31.6008 29.9633 30.8999 29.2624 30.0383 29.2624H26.9984C26.1368 29.2624 25.4359 29.9633 25.4359 30.8249V34.2243H24.2275C23.7098 34.2243 23.29 34.6441 23.29 35.1618C23.29 35.6796 23.7098 36.0993 24.2275 36.0993H49.7519C50.2697 36.0993 50.6894 35.6796 50.6894 35.1618C50.6895 34.6441 50.2698 34.2243 49.752 34.2243ZM44.2538 24.8936H46.6687V34.2243H44.2538V24.8936ZM35.7824 27.6576H38.1972V34.2244H35.7824V27.6576ZM27.3109 31.1374H29.7258V34.2243H27.3109V31.1374Z" fill="black"/>
<path d="M49.752 44.8203H24.2275C23.7098 44.8203 23.29 45.2401 23.29 45.7578C23.29 46.2756 23.7098 46.6953 24.2275 46.6953H49.7519C50.2697 46.6953 50.6894 46.2756 50.6894 45.7578C50.6895 45.2401 50.2698 44.8203 49.752 44.8203Z" fill="black"/>
<path d="M50.6895 14.5957C50.6895 13.7342 49.9887 13.0332 49.127 13.0332H24.8525C23.9909 13.0332 23.29 13.7342 23.29 14.5957V18.6435C23.29 19.5051 23.9909 20.206 24.8525 20.206H49.1269C49.9885 20.206 50.6894 19.5051 50.6894 18.6435V14.5957H50.6895ZM48.8145 18.331H25.165V14.9082H48.8144V18.331H48.8145Z" fill="black"/>
<path d="M20.3403 3.33789C19.8171 3.33789 19.3928 3.76214 19.3928 4.28539C19.3928 4.80864 19.8169 5.23289 20.3403 5.23289C20.8636 5.23289 21.2878 4.80877 21.2878 4.28539C21.2877 3.76202 20.8636 3.33789 20.3403 3.33789Z" fill="black"/>
<path d="M23.3767 3.33789C22.8534 3.33789 22.4292 3.76214 22.4292 4.28539C22.4292 4.80864 22.8534 5.23289 23.3767 5.23289C23.8999 5.23289 24.3242 4.80877 24.3242 4.28539C24.3241 3.76202 23.8999 3.33789 23.3767 3.33789Z" fill="black"/>
<path d="M26.4128 3.33789C25.8896 3.33789 25.4653 3.76214 25.4653 4.28539C25.4653 4.80864 25.8895 5.23289 26.4128 5.23289C26.9361 5.23289 27.3603 4.80877 27.3603 4.28539C27.3602 3.76202 26.9361 3.33789 26.4128 3.33789Z" fill="black"/>
</svg>
