<svg width="64" height="64" viewBox="0 0 64 64" fill="none" xmlns="http://www.w3.org/2000/svg">
<path d="M32.0042 63.9959C23.8069 63.9959 15.6096 60.8756 9.36913 54.6352C8.57188 53.838 8.57163 52.5452 9.36913 51.7478C10.1664 50.9506 11.4591 50.9503 12.2567 51.7478C23.1455 62.6367 40.8633 62.6367 51.7523 51.7478C62.6412 40.859 62.6412 23.1412 51.7523 12.2521C40.8635 1.36329 23.1457 1.36329 12.2569 12.2521C5.21173 19.2973 2.44645 29.6574 5.04022 39.2897C5.33335 40.3786 4.68847 41.4989 3.59959 41.792C2.5112 42.0851 1.39045 41.4402 1.09732 40.3513C-1.87558 29.313 1.29419 17.4397 9.36901 9.36473C21.8502 -3.11649 42.1584 -3.11624 54.6394 9.36473C67.1203 21.846 67.1203 42.1541 54.6394 54.6351C48.3987 60.8755 40.2015 63.9959 32.0042 63.9959Z" fill="#FFC61B"/>
<path d="M32.0042 51.3258C42.6769 51.3258 51.3287 42.6739 51.3287 32.0013C51.3287 21.3286 42.6769 12.6768 32.0042 12.6768C21.3316 12.6768 12.6797 21.3286 12.6797 32.0013C12.6797 42.6739 21.3316 51.3258 32.0042 51.3258Z" fill="#FEE187"/>
<path d="M32.0059 53.3654C20.2251 53.3654 10.6406 43.7809 10.6406 32.0002C10.6406 20.2195 20.2251 10.6348 32.0059 10.6348C43.7868 10.6348 53.3712 20.2192 53.3712 32.0001C53.3712 43.7809 43.7866 53.3654 32.0059 53.3654ZM32.0059 14.7182C22.4766 14.7182 14.7239 22.4709 14.7239 32.0002C14.7239 41.5295 22.4766 49.2822 32.0059 49.2822C41.5352 49.2822 49.2879 41.5295 49.2879 32.0002C49.2879 22.4709 41.5352 14.7182 32.0059 14.7182Z" fill="#FFC61B"/>
</svg>
