<svg width="64" height="64" viewBox="0 0 64 64" fill="none" xmlns="http://www.w3.org/2000/svg">
<path d="M54.5467 28.8954C54.7561 28.1055 54.8681 27.2761 54.8683 26.4203C54.8694 21.17 50.6098 16.8361 45.3601 16.7511C43.3466 16.7185 41.4712 17.3015 39.9097 18.3242C39.0513 18.8865 37.9024 18.6092 37.3494 17.745C34.457 13.2244 29.3705 10.243 23.5914 10.3046C15.018 10.396 7.7592 17.6435 7.65408 26.2167C7.63858 27.4836 7.76983 28.717 8.03121 29.9016C8.18683 30.6066 7.90133 31.3334 7.32095 31.7629C4.05028 34.1839 1.95976 38.1082 2.07114 42.515C2.24101 49.238 7.6107 54.7627 14.3265 55.114C14.363 55.1159 14.3995 55.1177 14.4359 55.1193C15.6312 55.172 16.4718 56.3263 16.1279 57.4722C15.6087 59.2025 14.891 60.6927 14.3504 61.6834C14.0092 62.3088 14.4673 63.07 15.1798 63.062C17.1813 63.0396 20.6526 62.533 23.1419 59.6397C23.7968 58.8785 24.9274 58.7626 25.7083 59.394C28.4741 61.63 31.9936 62.97 35.8273 62.97C41.3996 62.97 46.3105 60.1412 49.2043 55.8418C49.5052 55.3947 49.9867 55.1047 50.5218 55.0412C56.9489 54.2793 61.9333 48.8117 61.9333 42.1796C61.9333 37.3732 59.3151 33.1785 55.4271 30.9434C54.7091 30.5308 54.3346 29.6959 54.5467 28.8954Z" fill="#FFE177"/>
<path d="M55.427 30.9438C55.4151 30.9369 55.404 30.929 55.3922 30.9219H54.7705C56.8886 33.2277 58.183 36.3022 58.183 39.68C58.183 46.3119 53.1986 51.7796 46.7715 52.5415C46.2364 52.6049 45.7548 52.895 45.454 53.342C42.5602 57.6414 37.6493 60.4702 32.0769 60.4702C28.2433 60.4702 24.7237 59.1302 21.9579 56.8943C21.1771 56.2629 20.0464 56.3788 19.3915 57.1401C18.1425 58.5918 16.6463 59.4425 15.2125 59.9327C14.912 60.6126 14.6105 61.2065 14.3501 61.6837C14.0088 62.3091 14.467 63.0704 15.1795 63.0624C17.181 63.04 20.6523 62.5334 23.1416 59.6401C23.7965 58.8788 24.9271 58.7629 25.708 59.3943C28.4738 61.6304 31.9933 62.9703 35.827 62.9703C41.3993 62.9703 46.3102 60.1415 49.204 55.842C49.5049 55.3949 49.9863 55.1049 50.5215 55.0415C56.9486 54.2796 61.933 48.812 61.933 42.18C61.9332 37.3736 59.3149 33.179 55.427 30.9438Z" fill="#FFD15B"/>
<path d="M32.8615 13.1146C30.2283 11.3107 27.0328 10.2679 23.5913 10.3047C16.6976 10.3782 10.6549 15.079 8.49658 21.3749C11.0664 24.1771 14.7573 25.9341 18.859 25.9341C26.2055 25.9341 32.2346 20.2983 32.8615 13.1146Z" fill="#FFD15B"/>
<path d="M18.8592 22.8165C24.9009 22.8165 29.7987 17.9187 29.7987 11.877C29.7987 5.83528 24.9009 0.9375 18.8592 0.9375C12.8175 0.9375 7.91968 5.83528 7.91968 11.877C7.91968 17.9187 12.8175 22.8165 18.8592 22.8165Z" fill="#B5E8E2"/>
<path d="M25.168 2.93945C26.6577 4.8086 27.5486 7.17625 27.5486 9.75228C27.5486 15.7941 22.6508 20.6918 16.6091 20.6918C14.2595 20.6918 12.0831 19.9508 10.3003 18.6901C12.3046 21.2048 15.3935 22.8168 18.8591 22.8168C24.9008 22.8168 29.7986 17.919 29.7986 11.8773C29.7986 8.18514 27.9694 4.92048 25.168 2.93945Z" fill="#30A698"/>
<path d="M19.1541 16.5146C18.5842 16.5146 18.1223 16.9765 18.1223 17.5464C18.1223 18.1162 18.5842 18.5782 19.1541 18.5782C19.7238 18.5782 20.1858 18.1163 20.1858 17.5464C20.1857 16.9767 19.7238 16.5146 19.1541 16.5146Z" fill="black"/>
<path d="M55.8943 30.131C55.5341 29.9238 55.3527 29.5145 55.4531 29.1357C55.687 28.253 55.8057 27.3394 55.8058 26.4208C55.8062 25.0349 55.5388 23.6838 55.0113 22.4046C54.8138 21.926 54.2656 21.698 53.7871 21.8955C53.3084 22.093 53.0805 22.641 53.2779 23.1198C53.7116 24.1707 53.9313 25.2812 53.9309 26.4204C53.9308 27.1772 53.8332 27.9291 53.6407 28.6555C53.3237 29.8523 53.8662 31.1276 54.9599 31.7565C58.683 33.8969 60.9959 37.8909 60.9959 42.18C60.9959 48.2662 56.4456 53.3951 50.4115 54.1105C49.6023 54.2064 48.8787 54.6468 48.4266 55.3186C45.597 59.5228 40.887 62.0327 35.8273 62.0327C32.3181 62.0327 29.0228 60.8682 26.2977 58.6652C25.1225 57.7152 23.4241 57.8745 22.4312 59.0287C20.1524 61.6775 16.9033 62.1056 15.1734 62.1329C15.7156 61.1395 16.4771 59.5713 17.0259 57.7421C17.2715 56.9234 17.1279 56.0533 16.6319 55.3549C16.13 54.6484 15.3447 54.2213 14.4769 54.1829L14.3756 54.178C8.1589 53.8528 3.16572 48.7194 3.00834 42.4915C2.90934 38.5763 4.73011 34.8473 7.87877 32.5166C8.76103 31.8636 9.18016 30.758 8.94666 29.6997C8.69653 28.5665 8.57703 27.3984 8.59141 26.2284C8.61803 24.0558 9.14416 21.8965 10.1198 19.9109C12.2919 22.272 15.4055 23.754 18.8592 23.754C25.0582 23.754 30.1624 18.98 30.6903 12.9155C33.0627 14.139 35.1168 15.9952 36.5597 18.2505C36.9649 18.8836 37.6167 19.3365 38.3481 19.493C39.0718 19.648 39.8088 19.5114 40.4234 19.1087C41.8853 18.1513 43.5881 17.661 45.3451 17.6887C47.596 17.7252 49.7244 18.6275 51.3384 20.2295C51.5213 20.411 51.76 20.5016 51.9988 20.5016C52.2399 20.5016 52.4809 20.4091 52.6642 20.2246C53.0289 19.8571 53.0267 19.2636 52.6592 18.8988C50.6998 16.9538 48.113 15.8583 45.3752 15.8141C43.2464 15.7774 41.1732 16.3763 39.3959 17.5403C39.2031 17.6666 38.9701 17.7088 38.7404 17.6597C38.4916 17.6065 38.278 17.4575 38.139 17.2401C36.3199 14.3968 33.7522 12.1916 30.6895 10.832C30.1587 4.77056 25.056 0 18.8592 0C15.9411 0 13.1355 1.06826 10.9592 3.00829C10.5727 3.35279 10.5387 3.94542 10.8832 4.33193C11.2277 4.71855 11.8204 4.75256 12.2068 4.40793C14.0392 2.77453 16.4017 1.87502 18.8592 1.87502C24.3743 1.87502 28.8613 6.36195 28.8613 11.877C28.8613 17.3921 24.3743 21.879 18.8592 21.879C13.3441 21.879 8.85716 17.3921 8.85716 11.877C8.85716 10.2116 9.27441 8.5631 10.0638 7.10996C10.3109 6.65495 10.1424 6.08582 9.68742 5.83869C9.23216 5.59132 8.66316 5.76007 8.41603 6.21495C7.47789 7.94197 6.98201 9.89987 6.98201 11.877C6.98201 14.2323 7.67114 16.4296 8.85841 18.278C7.48927 20.7275 6.75013 23.4554 6.71651 26.2053C6.70026 27.5187 6.83451 28.8303 7.11551 30.1036C7.18989 30.4404 7.05139 30.796 6.76313 31.0095C3.12397 33.7035 1.01957 38.0134 1.13382 42.539C1.31582 49.7395 7.08939 55.6745 14.2766 56.0505L14.3947 56.0563C14.6804 56.0689 14.9386 56.209 15.1032 56.4408C15.1966 56.5722 15.3371 56.8459 15.23 57.2032C14.7276 58.8776 14.0268 60.3197 13.5276 61.2347C13.2062 61.8235 13.2207 62.5184 13.5662 63.0932C13.9082 63.6622 14.506 64.0001 15.1686 64C15.1759 64 15.1831 64 15.1904 63.9999C17.2408 63.9769 21.0927 63.4595 23.8526 60.2515C24.1803 59.8704 24.7365 59.8142 25.119 60.1233C28.1375 62.5637 31.9406 63.9077 35.8273 63.9077C41.512 63.9077 46.8036 61.0882 49.982 56.3655C50.1289 56.1473 50.3658 56.004 50.6321 55.9725C57.6094 55.1454 62.8708 49.216 62.8708 42.1801C62.8708 37.2219 60.1975 32.6049 55.8943 30.131Z" fill="black"/>
<path d="M22.902 8.77471C22.8002 6.81094 21.1791 5.24155 19.2116 5.20192C19.1857 5.20142 19.1602 5.20117 19.1344 5.20117C17.257 5.20117 15.6577 6.58494 15.3977 8.44884C15.3736 8.62146 15.3613 8.79821 15.3613 8.97409C15.3613 9.49185 15.781 9.9116 16.2988 9.9116C16.8167 9.9116 17.2364 9.49185 17.2364 8.97409C17.2364 8.88471 17.2425 8.79534 17.2546 8.70809C17.3854 7.77133 18.1899 7.07607 19.1349 7.07607C19.1479 7.07607 19.1607 7.07619 19.1737 7.07644C20.163 7.09632 20.9781 7.88495 21.0293 8.87171C21.0566 9.3986 20.8723 9.89885 20.5104 10.2801C20.1481 10.6617 19.6593 10.8719 19.1341 10.8719C18.6162 10.8719 18.1966 11.2916 18.1966 11.8094V14.0865C18.1966 14.6043 18.6162 15.024 19.1341 15.024C19.652 15.024 20.0716 14.6043 20.0716 14.0865V12.6274C20.7523 12.4516 21.3799 12.0875 21.8702 11.5711C22.5898 10.8135 22.9562 9.82023 22.902 8.77471Z" fill="black"/>
<path d="M17.4932 31.1436C16.9753 31.1436 16.5557 31.5633 16.5557 32.0811V39.4604C16.5557 39.9782 16.9753 40.3979 17.4932 40.3979C18.0111 40.3979 18.4307 39.9782 18.4307 39.4604V36.5817H21.6622V39.4604C21.6622 39.9782 22.0819 40.3979 22.5997 40.3979C23.1176 40.3979 23.5372 39.9782 23.5372 39.4604V32.0811C23.5372 31.5633 23.1176 31.1436 22.5997 31.1436C22.0819 31.1436 21.6622 31.5633 21.6622 32.0811V34.7067H18.4307V32.0811C18.4307 31.5633 18.0111 31.1436 17.4932 31.1436Z" fill="black"/>
<path d="M46.6898 31.1753C46.1821 31.0743 45.6884 31.404 45.5874 31.9119L44.7439 36.1498L43.4055 31.8052C43.253 31.3103 42.7284 31.0332 42.2335 31.1852C41.8981 31.2885 41.6631 31.563 41.5936 31.8831L40.2729 36.1504L39.432 31.8994C39.3315 31.3915 38.8386 31.061 38.3305 31.1616C37.8225 31.2621 37.4922 31.7554 37.5927 32.2632L39.0305 39.5318C39.0394 39.5766 39.0515 39.6207 39.0667 39.6637C39.2231 40.1039 39.6405 40.3983 40.107 40.3983C40.1096 40.3983 40.1122 40.3982 40.1147 40.3982C40.5844 40.395 41.0014 40.0939 41.1524 39.6492C41.1551 39.6412 41.1578 39.6331 41.1604 39.6249L42.5096 35.2658L43.8529 39.6259C43.8568 39.6387 43.861 39.6512 43.8655 39.6637C44.0219 40.1039 44.4393 40.3983 44.9058 40.3983C44.9084 40.3983 44.911 40.3982 44.9135 40.3982C45.3832 40.395 45.8002 40.0939 45.9512 39.6492C45.9643 39.6104 45.9749 39.5709 45.9829 39.5307L47.4265 32.2779C47.5275 31.77 47.1977 31.2765 46.6898 31.1753Z" fill="black"/>
<path d="M35.3006 35.6448C35.3006 33.0934 33.225 31.0176 30.6734 31.0176C28.122 31.0176 26.0461 33.0934 26.0461 35.6448C26.0461 38.1962 28.1219 40.2719 30.6734 40.2719C33.225 40.2719 35.3006 38.1962 35.3006 35.6448ZM27.9213 35.6448C27.9213 34.1272 29.1559 32.8926 30.6736 32.8926C32.1911 32.8926 33.4257 34.1272 33.4257 35.6448C33.4257 37.1623 32.1911 38.3969 30.6736 38.3969C29.1559 38.3969 27.9213 37.1624 27.9213 35.6448Z" fill="black"/>
<path d="M46.5069 43.709H17.0857C16.5678 43.709 16.1482 44.1287 16.1482 44.6465C16.1482 45.1643 16.5678 45.584 17.0857 45.584H46.5069C47.0248 45.584 47.4444 45.1643 47.4444 44.6465C47.4444 44.1287 47.0248 43.709 46.5069 43.709Z" fill="black"/>
<path d="M46.5068 48.2695H38.5122C37.9943 48.2695 37.5747 48.6893 37.5747 49.207C37.5747 49.7248 37.9943 50.1446 38.5122 50.1446H46.5068C47.0247 50.1446 47.4443 49.7248 47.4443 49.207C47.4443 48.6893 47.0247 48.2695 46.5068 48.2695Z" fill="black"/>
</svg>
