<svg width="26" height="32" viewBox="0 0 26 32" fill="none" xmlns="http://www.w3.org/2000/svg">
<path d="M24.0625 32C23.3721 32 22.8125 31.4404 22.8125 30.75C22.8125 25.8563 18.8312 21.875 13.9375 21.875H12.0625C7.16881 21.875 3.1875 25.8563 3.1875 30.75C3.1875 31.4404 2.62787 32 1.9375 32C1.24713 32 0.6875 31.4404 0.6875 30.75C0.6875 24.4778 5.79031 19.375 12.0625 19.375H13.9375C20.2097 19.375 25.3125 24.4778 25.3125 30.75C25.3125 31.4404 24.7529 32 24.0625 32Z" fill="#B3BAB6"/>
<path d="M12.875 16.875C8.22256 16.875 4.4375 13.0899 4.4375 8.4375C4.4375 3.78506 8.22256 0 12.875 0C17.5274 0 21.3125 3.78506 21.3125 8.4375C21.3125 13.0899 17.5274 16.875 12.875 16.875ZM12.875 2.5C9.60106 2.5 6.9375 5.16356 6.9375 8.4375C6.9375 11.7114 9.60106 14.375 12.875 14.375C16.1489 14.375 18.8125 11.7114 18.8125 8.4375C18.8125 5.16356 16.1489 2.5 12.875 2.5Z" fill="#B3BAB6"/>
</svg>
