<svg width="32" height="32" viewBox="0 0 32 32" fill="none" xmlns="http://www.w3.org/2000/svg">
<path d="M14.1774 0C22.0033 0 28.3548 6.35148 28.3548 14.1774C28.3548 22.0033 22.0033 28.3548 14.1774 28.3548C6.35148 28.3548 0 22.0033 0 14.1774C0 6.35148 6.35148 0 14.1774 0ZM14.1774 25.2043C20.269 25.2043 25.2043 20.269 25.2043 14.1774C25.2043 8.08428 20.269 3.15054 14.1774 3.15054C8.08428 3.15054 3.15054 8.08428 3.15054 14.1774C3.15054 20.269 8.08428 25.2043 14.1774 25.2043ZM27.5436 25.3161L32 29.771L29.771 32L25.3161 27.5436L27.5436 25.3161Z" fill="white"/>
</svg>
