<svg width="64" height="56" viewBox="0 0 64 56" fill="none" xmlns="http://www.w3.org/2000/svg">
<path fill-rule="evenodd" clip-rule="evenodd" d="M24.6399 3.79784C19.9919 5.12456 16.3895 7.16089 13.0322 10.359C12.4896 10.8758 12.4612 10.9198 12.7988 10.7193C13.9336 10.0454 15.5495 9.51289 17.3599 9.21593C18.9136 8.96105 20.4152 8.84441 23.5732 8.73305C27.681 8.58809 28.4092 8.34121 28.1178 7.1916C27.7988 5.93288 26.8992 4.75208 25.6032 3.89032C25.1858 3.61288 25.2621 3.62008 24.6399 3.79784ZM27.7332 12.0977C20.5256 12.3575 15.5416 13.8377 12.4266 16.6434C12.2725 16.7822 12.1079 16.9298 12.0607 16.9714C10.6655 18.2031 9.30917 20.5839 8.76341 22.7599C8.31733 24.5382 8.12037 27.0758 8.28757 28.8932C8.59013 32.1833 9.54388 35.1466 11.1876 37.9023C11.3872 38.2372 11.5468 38.515 11.542 38.5193C11.5372 38.5238 11.2572 38.7342 10.9199 38.9871C10.2383 39.498 9.62661 39.9924 9.62661 40.0322C9.62661 40.1855 11.1199 42.1487 11.912 43.0366C12.2663 43.4337 12.2304 43.4031 12.2856 43.3546C12.3442 43.3031 13.4114 42.5924 13.9732 42.2308C20.0287 38.3332 26.3445 35.2857 32.7199 33.185C38.2396 31.3663 43.5575 30.3391 48.8666 30.0663C49.3066 30.0438 49.6965 30.0225 49.7332 30.0193C49.82 30.0114 48.3581 29.5842 47.1085 29.2522C46.5514 29.1042 44.673 28.6481 44.1066 28.5231C36.6892 26.8878 31.5068 26.871 29.1117 28.4743C29.0063 28.5449 28.905 28.6118 28.8869 28.6226C28.8485 28.6458 28.8516 28.6228 28.9517 28.1332C29.1208 27.3054 29.5156 26.3598 29.9925 25.6399C32.1764 22.3433 36.3133 21.6911 42.5813 23.6556C45.6568 24.6194 49.3632 26.4124 52.5109 28.459L52.8752 28.6958L52.8904 28.9145C52.8989 29.0348 52.9186 29.4452 52.9343 29.8266C52.95 30.2079 52.9741 30.7418 52.9879 31.0132C53.0016 31.2846 53.013 31.5327 53.013 31.5646L53.0132 31.6225L52.0466 31.6223C47.6852 31.622 44.754 33.051 43.5596 35.7599C43.2021 36.5703 43.6751 37.0756 45.2914 37.6108L45.5829 37.7073L45.8647 37.4319C46.4455 36.8644 47.1767 36.3372 47.6322 36.1577C48.3682 35.8676 50.0413 36.0831 52.016 36.7225L52.4268 36.8554L52.493 36.9862C53.2268 38.4342 52.1976 41.6276 50.7639 42.3513C49.2319 43.1247 43.6956 41.2106 41.4802 39.1417C39.6692 37.4505 40.1759 35.0458 42.8007 32.8746L42.9199 32.7761L42.4532 32.8962C41.502 33.1412 39.9319 33.622 38.7999 34.0148C31.8759 36.4175 24.7372 40.3542 17.4532 45.7868C16.7866 46.2839 16.5042 46.4827 16.2247 46.6511L16.0757 46.7407L16.4445 46.9939C17.2007 47.5131 18.1706 48.0796 18.9885 48.4798L19.3239 48.6439L19.602 48.5193C20.0535 48.3169 20.8893 47.885 21.3332 47.6247C21.5605 47.4913 21.7885 47.3577 21.8399 47.3278L21.9332 47.2734L22.545 47.518C30.2901 50.6166 39.0132 49.7783 45.8677 45.2766L46.3888 44.9343L46.6943 44.987C47.9855 45.2095 49.724 45.3979 49.8109 45.3247C49.8341 45.305 50.0212 45.1521 50.2266 44.9847C52.1597 43.4086 53.6536 41.6905 54.8044 39.7199C55.4661 38.5868 56.1597 37.2602 56.4522 36.5682L56.5669 36.2966L56.4141 36.0668C56.046 35.5135 55.3828 34.9636 54.7248 34.6663C54.557 34.5905 54.5575 34.6031 54.7079 34.1866C56.1727 30.1271 56.3136 25.4679 55.0722 22.1466C53.176 17.0738 48.2525 14.03 39.8932 12.762C37.6244 12.4178 35.2554 12.2172 32.1599 12.1066C31.5229 12.0839 28.2972 12.0774 27.7332 12.0977ZM33.5066 14.2412C39.9644 14.7836 45.7122 16.5657 49.2007 19.1071C49.8879 19.6078 50.9276 20.4951 51.1578 20.7772C51.1858 20.8118 51.2964 20.9335 51.4034 21.0478C52.58 22.305 53.4722 23.9334 53.7477 25.3262C53.8092 25.6362 53.7951 25.6382 53.578 25.3492C51.3258 22.353 45.9277 19.0535 38.6532 16.2268C38.3012 16.09 37.8992 15.9337 37.7599 15.8794C36.8026 15.5063 34.088 14.5594 33.3272 14.3334C33.0268 14.2439 32.8893 14.1676 33.0876 14.2002C33.1274 14.2068 33.3159 14.2252 33.5066 14.2412ZM23.1066 16.7479C24.3388 17.1609 25.7224 18.1858 25.7783 18.727C25.8373 19.2998 25.072 20.1175 23.696 20.9519L23.3757 21.1462L23.3173 20.985C23.161 20.5534 22.6677 20.0543 22.0023 19.6546C21.7354 19.4943 21.7524 19.4967 21.71 19.614C21.6008 19.9154 21.1244 20.4466 20.5864 20.8662C20.1455 21.2103 19.137 21.8738 19.1111 21.837C19.1071 21.8313 19.0837 21.7606 19.0592 21.6798C18.918 21.2148 18.3229 20.6183 17.5362 20.1527C16.8752 19.7615 16.6536 19.3534 16.784 18.767C16.9058 18.2201 18.0543 16.8266 18.3832 16.8266C18.8319 16.8266 20.3599 17.6081 21.0456 18.1882C21.2575 18.3676 21.2672 18.3726 21.2884 18.3142C21.4434 17.8878 22.2103 16.9084 22.5506 16.7023C22.6879 16.6193 22.7336 16.623 23.1066 16.7479ZM24.2666 23.1308C24.7557 23.173 25.7671 23.2927 25.9466 23.3295L26.0399 23.3486L26.0892 23.6143C26.1604 23.9986 26.1655 25.0286 26.0978 25.3866C25.8632 26.6297 25.1408 27.4239 23.9815 27.7135C23.8522 27.7457 23.7428 27.7742 23.7383 27.7766C23.7338 27.779 23.8349 27.9652 23.9631 28.1903C24.9124 29.858 24.9554 30.8804 24.1279 32.1031C22.9428 33.8542 18.6341 34.746 15.686 33.8506C13.7085 33.25 12.5887 32.0724 12.3336 30.3254C11.8104 26.741 15.1178 23.763 20.278 23.1722C21.2559 23.0602 23.2144 23.0399 24.2666 23.1308ZM22.5466 27.8417C17.5842 27.9892 13.5165 29.2841 14.2239 30.4911C14.8404 31.5431 20.634 31.8705 22.4076 30.9535C23.2639 30.511 23.7149 29.3647 23.5229 28.1199C23.4735 27.7998 23.4813 27.8126 23.3381 27.8175C23.2695 27.8199 22.9132 27.8306 22.5466 27.8417ZM36.602 37.7927C37.5911 38.4417 39.1101 40.8263 39.0607 41.6527C39.0116 42.4743 37.5754 43.1395 35.3199 43.385C35.1732 43.4011 35.0165 43.4201 34.9717 43.4273L34.8904 43.4404V43.1135C34.8906 42.8665 34.8764 42.7297 34.8325 42.554C34.6879 41.9739 34.4533 41.5143 33.8594 40.6476C33.3519 39.9071 33.5783 39.0639 34.4172 38.5702C35.7031 37.8135 36.3064 37.5988 36.602 37.7927Z" fill="#1C0414"/>
<path fill-rule="evenodd" clip-rule="evenodd" d="M30.5733 0.455084C29.2129 0.535564 27.7536 0.723564 26.7361 0.949484C26.1288 1.08436 25.1077 1.43012 25.2944 1.43764C25.4264 1.44308 26.2777 1.99476 26.7296 2.36772C28.4029 3.74852 29.4886 5.65812 29.9064 7.95493C30.0371 8.67396 29.9614 9.0482 29.6061 9.44084C28.8937 10.228 27.3173 10.6172 24.5333 10.6933C21.9576 10.7636 20.5885 10.9196 18.9081 11.3336C14.8184 12.3416 11.3366 14.3199 8.2267 17.4028C7.9627 17.6644 7.73758 17.8757 7.7267 17.8725C7.71566 17.8692 7.70846 17.8756 7.71086 17.8866C7.7131 17.8975 7.67134 17.9999 7.6179 18.114C7.11214 19.1932 6.48302 21.1634 6.18958 22.5866C5.07182 28.0092 5.92526 33.5535 8.62766 38.4266C8.84782 38.8234 9.4451 39.812 9.54381 39.9429L9.59134 40.0058L10.1224 39.5812C10.4144 39.3476 10.8453 39.0151 11.08 38.8421C11.5897 38.4666 11.5569 38.5362 11.3657 38.2349C9.75422 35.6941 8.67982 32.5904 8.33518 29.4799C7.7723 24.3991 9.04222 19.9762 11.88 17.1336C13.7582 15.2524 16.2048 13.9816 19.68 13.0828C23.3545 12.1324 29.003 11.8188 35.08 12.2279C48.5526 13.1349 55.1736 17.4684 55.8771 25.8399C56.1077 28.5832 55.5985 32.0572 54.603 34.5332C54.591 34.5631 54.663 34.6124 54.8867 34.7274C55.5016 35.0434 56.0873 35.5469 56.4179 36.0432L56.58 36.2866L56.7078 35.9632C56.7781 35.7855 56.8573 35.5887 56.8837 35.5263C56.9101 35.4637 56.9337 35.4037 56.9361 35.3928C56.9387 35.3821 56.9705 35.2952 57.0069 35.1999C58.9737 30.0436 58.8923 23.9604 56.7864 18.7332L56.5392 18.1199L56.6496 18.1039L56.76 18.0879L56.6395 18.0839L56.519 18.0799L56.4014 17.8199C53.4032 11.1887 47.3445 6.05748 40.0006 3.93028C39.2901 3.72436 39.3707 3.7834 39.4541 3.53012C39.7094 2.75364 39.704 2.18356 39.4374 1.7962C39.0883 1.28868 36.6536 0.695404 34.0267 0.477644C33.5705 0.439884 31.1037 0.423724 30.5733 0.455084ZM35.8659 1.1618C36.3723 1.2362 37.0755 1.3946 37.6933 1.57364C37.9713 1.65428 38.7789 1.91908 38.7971 1.93572C38.8029 1.941 38.7003 2.06852 38.5693 2.21924C37.415 3.54692 36.2425 5.37988 35.5454 6.9466C35.3432 7.40116 34.96 8.34964 34.96 8.39572C34.96 8.61604 34.5493 7.74404 34.2299 6.8458C33.44 4.62372 33.3377 2.81428 33.9347 1.62436C34.1781 1.1394 34.7613 0.999884 35.8659 1.1618ZM42.2667 5.51924C47.9568 7.41636 52.9057 11.8391 55.6366 17.4671C55.9611 18.1359 56.6104 19.6532 56.5721 19.6532C56.5673 19.6532 56.4336 19.4943 56.275 19.2999C53.0699 15.3716 48.0357 10.5773 41.9467 5.65444C41.4261 5.23348 41.4189 5.23652 42.2667 5.51924ZM12.2792 11.0999L12.12 11.2666L12.2867 11.1074C12.3784 11.0199 12.4533 10.9448 12.4533 10.9407C12.4533 10.921 12.427 10.945 12.2792 11.0999ZM11.9049 11.4999L11.8267 11.5866L11.9133 11.5082C11.9941 11.4352 12.0123 11.4132 11.9917 11.4132C11.987 11.4132 11.948 11.4522 11.9049 11.4999ZM11.6917 11.7399L11.6133 11.8266L11.7 11.7482C11.7808 11.6752 11.7989 11.6532 11.7784 11.6532C11.7737 11.6532 11.7347 11.6922 11.6917 11.7399ZM57.007 18.1255C57.0401 18.1317 57.0881 18.1316 57.1136 18.1248C57.1392 18.1181 57.112 18.113 57.0533 18.1133C56.9947 18.1136 56.9737 18.1191 57.007 18.1255ZM6.5867 18.1436C6.5867 18.1492 6.62206 18.1591 6.66526 18.1653C6.70846 18.1717 6.73774 18.1671 6.73038 18.1551C6.7171 18.1336 6.5867 18.1232 6.5867 18.1436ZM57.2998 18.1853C57.4291 18.324 58.019 19.702 58.307 20.5375C59.1129 22.877 59.5046 25.608 59.3617 27.8932C59.2837 29.1431 59.2939 29.3628 59.4531 29.8501C59.7936 30.8924 60.7165 31.7247 61.7073 31.8831C61.7656 31.8924 61.8141 31.9135 61.8149 31.93C61.8157 31.9464 61.8809 31.7671 61.9601 31.5316C63.056 28.2661 63.5379 22.7567 62.8841 20.9668C62.3678 19.5533 60.4773 18.522 57.8133 18.2005C57.1873 18.125 57.2453 18.1268 57.2998 18.1853ZM4.2995 18.588C2.44318 19.1386 1.34638 20.0324 1.02846 21.2532C0.529416 23.1696 1.02046 28.5063 1.94734 31.2399L2.00158 31.3999L1.98782 31.2666C1.9803 31.1932 1.9611 30.724 1.94494 30.2239C1.79902 25.6903 2.74366 21.4917 4.52302 18.7656C4.61662 18.6221 4.69326 18.4991 4.69326 18.4924C4.69326 18.4724 4.67118 18.4778 4.2995 18.588ZM59.7733 19.0269C62.2056 19.6384 63.0928 22.7576 62.1965 27.5466C62.0715 28.2144 61.6549 30.034 61.6187 30.0701C61.6157 30.073 61.6125 29.5575 61.6113 28.9244C61.6051 25.1063 60.8062 21.6906 59.3627 19.3103C59.2438 19.1143 59.1467 18.9485 59.1467 18.942C59.1467 18.9157 59.5472 18.9701 59.7733 19.0269ZM4.40798 28.0532C4.40798 28.134 4.41294 28.1669 4.41902 28.1266C4.42526 28.0863 4.42526 28.0202 4.41902 27.9799C4.41294 27.9396 4.40798 27.9725 4.40798 28.0532ZM4.40766 28.9999C4.40782 29.0732 4.41294 29.1 4.41918 29.0596C4.42526 29.0189 4.4251 28.9589 4.4187 28.9261C4.41246 28.8933 4.40734 28.9266 4.40766 28.9999ZM3.0467 33.4316C3.0723 33.4383 3.11438 33.4383 3.13998 33.4316C3.16558 33.4248 3.14462 33.4194 3.09326 33.4194C3.0419 33.4194 3.02094 33.4248 3.0467 33.4316ZM60.2784 34.5932L60.2 34.6799L60.2867 34.6015C60.3675 34.5285 60.3856 34.5066 60.3649 34.5066C60.3603 34.5066 60.3214 34.5455 60.2784 34.5932ZM57.1 35.4316C57.1256 35.4383 57.1677 35.4383 57.1933 35.4316C57.219 35.4248 57.1981 35.4194 57.1467 35.4194C57.0953 35.4194 57.0744 35.4248 57.1 35.4316ZM57.5941 35.4594C57.6568 35.465 57.7528 35.465 57.8073 35.4592C57.8619 35.4535 57.8107 35.449 57.6933 35.449C57.576 35.4492 57.5313 35.4538 57.5941 35.4594ZM55.0067 43.832C55.0397 43.8384 55.0936 43.8384 55.1267 43.832C55.1597 43.8256 55.1326 43.8205 55.0667 43.8205C55.0006 43.8205 54.9736 43.8256 55.0067 43.832ZM53.7867 45.0532C53.7219 45.1192 53.6749 45.1732 53.6822 45.1732C53.6896 45.1732 53.7485 45.1192 53.8133 45.0532C53.8781 44.9872 53.9251 44.9332 53.9177 44.9332C53.9104 44.9332 53.8515 44.9872 53.7867 45.0532ZM45.82 45.3298C45.5083 45.5332 45.1243 45.7748 44.9667 45.8668C44.8089 45.9588 44.5779 46.0936 44.4533 46.1664C38.7429 49.5032 31.008 50.2951 24.4267 48.2168C23.8016 48.0194 22.6912 47.613 22.2667 47.4263C21.9182 47.273 21.9435 47.2733 21.7197 47.4176C21.3539 47.6533 20.3992 48.1661 19.8705 48.4108L19.3339 48.6592L19.9803 48.9672C29.6125 53.5572 41.1401 52.2829 49.3302 45.7232L49.767 45.3733L49.2368 45.3285C48.3001 45.2492 47.0976 45.0956 46.4533 44.9727C46.4013 44.9628 46.2624 45.0412 45.82 45.3298ZM53.0664 45.8066L52.6 46.2799L53.0733 45.8135C53.5131 45.3802 53.5587 45.3332 53.5397 45.3332C53.5358 45.3332 53.3229 45.5463 53.0664 45.8066ZM52.3584 46.4866L52.28 46.5732L52.3667 46.4949C52.4475 46.422 52.4656 46.3999 52.4449 46.3999C52.4403 46.3999 52.4014 46.4389 52.3584 46.4866ZM53.1729 47.1932L52.8133 47.5599L53.18 47.2002C53.3816 47.0024 53.5467 46.8375 53.5467 46.8336C53.5467 46.8144 53.507 46.8527 53.1729 47.1932ZM34.86 53.965C34.8856 53.9716 34.9277 53.9716 34.9533 53.965C34.979 53.9583 34.9579 53.9527 34.9067 53.9527C34.8553 53.9527 34.8344 53.9583 34.86 53.965ZM34.62 53.9916C34.6456 53.9983 34.6877 53.9983 34.7133 53.9916C34.739 53.9848 34.7179 53.9794 34.6667 53.9794C34.6153 53.9794 34.5944 53.9848 34.62 53.9916ZM27.6067 54.0183C27.6323 54.025 27.6744 54.025 27.7 54.0183C27.7256 54.0116 27.7046 54.0061 27.6533 54.0061C27.6019 54.0061 27.5809 54.0116 27.6067 54.0183ZM34.3267 54.0183C34.3523 54.025 34.3944 54.025 34.42 54.0183C34.4456 54.0116 34.4246 54.0061 34.3733 54.0061C34.3219 54.0061 34.3009 54.0116 34.3267 54.0183ZM27.9267 54.045C27.9523 54.0516 27.9944 54.0516 28.02 54.045C28.0456 54.0383 28.0246 54.0327 27.9733 54.0327C27.9219 54.0327 27.9009 54.0383 27.9267 54.045ZM28.2336 54.072C28.2669 54.0784 28.3149 54.0783 28.3403 54.0716C28.3657 54.0648 28.3387 54.0597 28.28 54.0599C28.2213 54.0602 28.2005 54.0656 28.2336 54.072ZM33.7003 54.072C33.7334 54.0784 33.7814 54.0783 33.807 54.0716C33.8325 54.0648 33.8053 54.0597 33.7467 54.0599C33.688 54.0602 33.6672 54.0656 33.7003 54.072ZM28.6467 54.0983C28.6723 54.105 28.7144 54.105 28.74 54.0983C28.7656 54.0916 28.7446 54.0861 28.6933 54.0861C28.6419 54.0861 28.6209 54.0916 28.6467 54.0983ZM29.1 54.125C29.1256 54.1316 29.1677 54.1316 29.1933 54.125C29.219 54.1183 29.1979 54.1127 29.1467 54.1127C29.0953 54.1127 29.0744 54.1183 29.1 54.125ZM32.8203 54.1255C32.8534 54.1317 32.9014 54.1316 32.927 54.1248C32.9525 54.1181 32.9253 54.113 32.8667 54.1133C32.808 54.1136 32.7872 54.1191 32.8203 54.1255ZM29.66 54.1524C29.7003 54.1584 29.7664 54.1584 29.8067 54.1524C29.847 54.1463 29.8141 54.1412 29.7333 54.1412C29.6526 54.1412 29.6197 54.1463 29.66 54.1524ZM32.2203 54.1524C32.2609 54.1584 32.3209 54.1583 32.3537 54.152C32.3865 54.1456 32.3533 54.1407 32.28 54.1409C32.2067 54.141 32.1798 54.1463 32.2203 54.1524ZM29.2736 55.5388C29.3069 55.5452 29.3549 55.5448 29.3803 55.5383C29.4057 55.5316 29.3787 55.5263 29.32 55.5266C29.2613 55.5269 29.2405 55.5324 29.2736 55.5388ZM32.8067 55.5383C32.8323 55.545 32.8744 55.545 32.9 55.5383C32.9256 55.5316 32.9046 55.5261 32.8533 55.5261C32.8019 55.5261 32.7809 55.5316 32.8067 55.5383ZM29.9 55.5656C29.9403 55.5717 30.0064 55.5717 30.0467 55.5656C30.087 55.5596 30.0541 55.5546 29.9733 55.5546C29.8926 55.5546 29.8597 55.5596 29.9 55.5656ZM32.1272 55.5658C32.175 55.5719 32.247 55.5717 32.2872 55.5656C32.3272 55.5596 32.288 55.5546 32.2 55.5548C32.112 55.5549 32.0792 55.5599 32.1272 55.5658Z" fill="#46C6B7"/>
<path fill-rule="evenodd" clip-rule="evenodd" d="M25.1154 1.52761C24.7766 1.78617 24.7769 2.36233 25.1164 3.37161C25.1606 3.50281 25.1906 3.61993 25.1834 3.63161C25.1761 3.64345 25.1873 3.65305 25.2084 3.65305C25.2711 3.65305 25.9404 4.11081 26.2132 4.34041C27.2001 5.17033 27.8534 6.14825 28.1178 7.19145C28.4092 8.34105 27.681 8.58793 23.5732 8.73289C20.4153 8.84425 18.9137 8.96089 17.3599 9.21577C15.5785 9.50793 13.9442 10.0423 12.8428 10.6929C12.7177 10.7668 12.6052 10.8241 12.5926 10.8201C12.5482 10.8065 11.7116 11.714 11.1977 12.3331C9.97912 13.8011 8.89784 15.4633 8.1012 17.0931C7.64776 18.0207 7.6372 17.9878 8.20664 17.4223C11.3222 14.3279 14.8097 12.3438 18.9081 11.3335C20.5884 10.9195 21.9575 10.7635 24.5332 10.6932C27.3172 10.6171 28.8937 10.2279 29.606 9.44073C30.0414 8.95961 30.069 8.51545 29.7455 7.20745C29.1538 4.81657 27.6188 2.73753 25.5878 1.57641C25.3065 1.41561 25.2676 1.41161 25.1154 1.52761ZM23.6132 4.07977C23.5796 4.09417 23.5746 4.10265 23.5999 4.10265C23.6218 4.10265 23.6639 4.09241 23.6932 4.07977C23.7268 4.06537 23.7318 4.05689 23.7066 4.05689C23.6846 4.05689 23.6426 4.06713 23.6132 4.07977ZM19.0066 6.00153C18.9516 6.03065 18.9066 6.06041 18.9066 6.06761C18.9066 6.07497 18.9546 6.05641 19.0132 6.02649C19.0719 5.99657 19.1199 5.96633 19.1199 5.95929C19.1199 5.94185 19.1198 5.94185 19.0066 6.00153ZM13.8249 9.60649L13.7466 9.69305L13.8332 9.61481C13.8809 9.57177 13.9199 9.53273 13.9199 9.52809C13.9199 9.50745 13.8978 9.52569 13.8249 9.60649ZM13.5854 9.81977L13.4799 9.93305L13.5932 9.82777C13.6986 9.72969 13.7188 9.70649 13.6986 9.70649C13.6943 9.70649 13.6433 9.75737 13.5854 9.81977ZM13.1327 10.2465L12.8932 10.4931L13.1399 10.2537C13.369 10.0313 13.3988 9.99977 13.3794 9.99977C13.3754 9.99977 13.2644 10.1108 13.1327 10.2465ZM29.0999 12.0731C29.4775 12.0772 30.0956 12.0772 30.4732 12.0731C30.851 12.0689 30.5418 12.0655 29.7866 12.0655C29.0313 12.0655 28.7223 12.0689 29.0999 12.0731ZM27.5932 12.0993C27.6556 12.1049 27.7575 12.1049 27.8199 12.0993C27.8823 12.0937 27.8313 12.0891 27.7066 12.0891C27.5818 12.0891 27.531 12.0937 27.5932 12.0993ZM31.8207 12.0995C31.8908 12.1049 31.9988 12.1049 32.0607 12.0993C32.1226 12.0937 32.0652 12.0892 31.9332 12.0892C31.8012 12.0894 31.7506 12.0939 31.8207 12.0995ZM26.8866 12.1259C26.9415 12.1316 27.0316 12.1316 27.0866 12.1259C27.1415 12.1201 27.0966 12.1155 26.9866 12.1155C26.8766 12.1155 26.8316 12.1201 26.8866 12.1259ZM32.6474 12.126C32.7175 12.1316 32.8255 12.1315 32.8874 12.1259C32.9494 12.1204 32.8919 12.1158 32.7599 12.1159C32.6279 12.1159 32.5774 12.1206 32.6474 12.126ZM26.3932 12.1524C26.4409 12.1583 26.519 12.1583 26.5666 12.1524C26.6143 12.1465 26.5753 12.1417 26.4799 12.1417C26.3846 12.1417 26.3455 12.1465 26.3932 12.1524ZM33.2599 12.1526C33.315 12.1583 33.4049 12.1583 33.4599 12.1526C33.515 12.1468 33.47 12.142 33.3599 12.142C33.25 12.142 33.2049 12.1468 33.2599 12.1526ZM25.886 12.179C25.9334 12.1849 26.0174 12.1851 26.0727 12.1793C26.1279 12.1735 26.0892 12.1686 25.9866 12.1686C25.8839 12.1684 25.8386 12.1731 25.886 12.179ZM33.8332 12.1793C33.8956 12.1849 33.9975 12.1849 34.0599 12.1793C34.1223 12.1737 34.0713 12.1691 33.9466 12.1691C33.8218 12.1691 33.771 12.1737 33.8332 12.1793ZM25.2532 12.2131L25.0799 12.2305L25.2266 12.2316C25.3073 12.2323 25.4633 12.2243 25.5732 12.2139L25.7732 12.1951L25.5999 12.1953C25.5046 12.1955 25.3486 12.2035 25.2532 12.2131ZM34.4799 12.2145C34.6193 12.2251 34.8113 12.2332 34.9066 12.2326C35.0647 12.2315 35.059 12.2295 34.8399 12.2118C34.7079 12.2009 34.5159 12.1927 34.4132 12.1935C34.237 12.195 34.2409 12.1961 34.4799 12.2145ZM24.5066 12.2764C24.3526 12.2921 24.2626 12.3084 24.3066 12.3126C24.3506 12.3167 24.5426 12.3035 24.7332 12.2831C24.9239 12.2628 25.0138 12.2465 24.9332 12.2468C24.8526 12.2473 24.6606 12.2606 24.5066 12.2764ZM35.4799 12.2809C35.6999 12.2995 35.9399 12.3142 36.0132 12.3135C36.0866 12.3127 35.9786 12.2969 35.7732 12.2782C35.5679 12.2595 35.3279 12.2447 35.2399 12.2455C35.1519 12.2463 35.2599 12.2622 35.4799 12.2809ZM24.0466 12.3387C24.0796 12.3449 24.1335 12.3449 24.1666 12.3387C24.1996 12.3323 24.1726 12.327 24.1066 12.327C24.0406 12.327 24.0135 12.3323 24.0466 12.3387ZM36.2332 12.3391C36.2809 12.3451 36.359 12.3451 36.4066 12.3391C36.4543 12.3332 36.4153 12.3283 36.3199 12.3283C36.2246 12.3283 36.1855 12.3332 36.2332 12.3391ZM23.8066 12.3652C23.8396 12.3716 23.8935 12.3716 23.9266 12.3652C23.9596 12.359 23.9326 12.3537 23.8666 12.3537C23.8006 12.3537 23.7735 12.359 23.8066 12.3652ZM36.6532 12.3742C36.7412 12.3851 36.8673 12.3935 36.9332 12.3929C37.0423 12.3921 37.0386 12.3902 36.8932 12.3721C36.8052 12.3612 36.6793 12.3527 36.6132 12.3532C36.5042 12.3542 36.5079 12.3561 36.6532 12.3742ZM23.5935 12.3919C23.6268 12.3983 23.6748 12.3982 23.7002 12.3915C23.7257 12.3847 23.6986 12.3796 23.6399 12.3798C23.5812 12.3801 23.5604 12.3855 23.5935 12.3919ZM23.3666 12.4182C23.3922 12.4249 23.4343 12.4249 23.4599 12.4182C23.4855 12.4115 23.4646 12.406 23.4132 12.406C23.3618 12.406 23.3409 12.4115 23.3666 12.4182ZM37.1399 12.4187C37.1729 12.4249 37.227 12.4249 37.2599 12.4187C37.2929 12.4123 37.2658 12.407 37.1999 12.407C37.134 12.407 37.107 12.4123 37.1399 12.4187ZM37.407 12.4454C37.4401 12.4516 37.4881 12.4515 37.5135 12.4447C37.5391 12.438 37.5119 12.4329 37.4532 12.4332C37.3946 12.4335 37.3737 12.439 37.407 12.4454ZM37.6599 12.4715C37.6855 12.4782 37.7276 12.4782 37.7532 12.4715C37.779 12.4647 37.7578 12.4593 37.7066 12.4593C37.6553 12.4593 37.6343 12.4647 37.6599 12.4715ZM37.8999 12.4982C37.9255 12.5049 37.9676 12.5049 37.9932 12.4982C38.019 12.4915 37.9978 12.486 37.9466 12.486C37.8953 12.486 37.8743 12.4915 37.8999 12.4982ZM20.6666 12.8531C20.5769 12.8819 20.6738 12.8819 20.7866 12.8531C20.8585 12.8348 20.8598 12.8327 20.7999 12.8323C20.7633 12.8319 20.7033 12.8414 20.6666 12.8531ZM20.3066 12.9323C20.2039 12.9587 20.1378 12.9812 20.1599 12.9823C20.182 12.9833 20.29 12.962 20.3999 12.9348C20.51 12.9076 20.5759 12.8851 20.5466 12.8847C20.5172 12.8844 20.4092 12.9057 20.3066 12.9323ZM40.9466 12.9331C40.9906 12.9443 41.0566 12.9535 41.0932 12.9535C41.1527 12.9535 41.1513 12.9513 41.0799 12.9331C41.0359 12.9219 40.97 12.9127 40.9332 12.9127C40.8738 12.9127 40.8753 12.915 40.9466 12.9331ZM41.2399 12.9865C41.2839 12.9977 41.35 13.0068 41.3866 13.0068C41.446 13.0068 41.4446 13.0046 41.3732 12.9865C41.3292 12.9753 41.2633 12.966 41.2266 12.966C41.1671 12.966 41.1686 12.9683 41.2399 12.9865ZM19.9466 13.0131C19.8938 13.03 19.891 13.0345 19.9332 13.0345C19.9626 13.0345 20.0166 13.0249 20.0532 13.0131C20.106 12.9963 20.1089 12.9918 20.0666 12.9918C20.0372 12.9918 19.9833 13.0014 19.9466 13.0131ZM17.8983 13.5913C17.703 13.6577 17.5478 13.7166 17.5534 13.7222C17.559 13.7278 17.7367 13.6734 17.9484 13.6014C18.1601 13.5294 18.3153 13.4705 18.2932 13.4707C18.2713 13.4707 18.0935 13.5249 17.8983 13.5913ZM43.6532 13.4999C43.6727 13.5207 44.405 13.7102 44.4177 13.6977C44.4234 13.6918 44.2868 13.65 44.114 13.6047C43.7122 13.4995 43.6369 13.4823 43.6532 13.4999ZM44.4932 13.7331C44.5226 13.7457 44.5646 13.7561 44.5866 13.7561C44.6118 13.7561 44.6068 13.7476 44.5732 13.7331C44.5439 13.7206 44.5018 13.7102 44.4799 13.7102C44.4546 13.7102 44.4596 13.7187 44.4932 13.7331ZM16.3257 14.1918C16.1895 14.2515 16.0825 14.3046 16.0879 14.31C16.0972 14.3193 16.5881 14.1137 16.611 14.0908C16.6407 14.0612 16.5513 14.0929 16.3257 14.1918ZM45.9047 14.1748C46.0503 14.2249 46.174 14.2612 46.1798 14.2556C46.1918 14.2435 45.7055 14.0788 45.6665 14.0819C45.6519 14.083 45.7591 14.1247 45.9047 14.1748ZM33.0026 14.2086C32.9879 14.2324 33.2761 14.3326 33.2975 14.3111C33.3046 14.3039 33.2705 14.2884 33.2218 14.2764L33.1332 14.2547L33.2532 14.2367L33.3732 14.2188L33.2338 14.2211C33.1572 14.2222 33.0862 14.215 33.0761 14.2049C33.0513 14.1799 33.0194 14.1817 33.0026 14.2086ZM33.4866 14.2587C33.5196 14.2649 33.5735 14.2649 33.6066 14.2587C33.6396 14.2523 33.6126 14.247 33.5466 14.247C33.4806 14.247 33.4535 14.2523 33.4866 14.2587ZM33.7799 14.2852C33.8129 14.2916 33.867 14.2916 33.8999 14.2852C33.9329 14.279 33.9058 14.2737 33.8399 14.2737C33.774 14.2737 33.747 14.279 33.7799 14.2852ZM46.2799 14.3035C46.3239 14.3235 46.39 14.3471 46.4266 14.3563C46.4801 14.3694 46.4775 14.3654 46.4132 14.3361C46.3692 14.3161 46.3033 14.2924 46.2666 14.2833C46.213 14.2702 46.2156 14.2742 46.2799 14.3035ZM34.047 14.3119C34.0801 14.3183 34.1281 14.3182 34.1535 14.3115C34.1791 14.3047 34.1519 14.2996 34.0932 14.2998C34.0346 14.3001 34.0137 14.3055 34.047 14.3119ZM15.9466 14.3598C15.91 14.3807 15.8919 14.3979 15.9066 14.3979C15.9212 14.3979 15.9633 14.3807 15.9999 14.3598C16.0366 14.3388 16.0546 14.3217 16.0399 14.3217C16.0252 14.3217 15.9833 14.3388 15.9466 14.3598ZM34.2999 14.3382C34.3255 14.3449 34.3676 14.3449 34.3932 14.3382C34.419 14.3315 34.3978 14.326 34.3466 14.326C34.2953 14.326 34.2743 14.3315 34.2999 14.3382ZM47.5702 14.8135C47.6785 14.8655 47.7718 14.9035 47.7775 14.8977C47.7833 14.8919 47.7126 14.8543 47.6206 14.8142C47.3729 14.7057 47.345 14.7054 47.5702 14.8135ZM15.0066 14.8281C14.9223 14.8716 14.8532 14.9132 14.8532 14.9206C14.8532 14.9279 14.9252 14.8975 15.0132 14.8531C15.1012 14.8087 15.1732 14.7665 15.1732 14.7595C15.1732 14.7415 15.1782 14.7396 15.0066 14.8281ZM34.7999 14.8078C34.7999 14.8259 35.1262 14.9358 35.1396 14.9223C35.1454 14.9166 35.0863 14.891 35.0082 14.8652C34.9303 14.8396 34.8516 14.8132 34.8332 14.8063C34.815 14.7996 34.7999 14.8003 34.7999 14.8078ZM47.8666 14.9465C47.9033 14.9675 47.9452 14.9846 47.9599 14.9846C47.9746 14.9846 47.9566 14.9675 47.9199 14.9465C47.8833 14.9255 47.8412 14.9083 47.8266 14.9083C47.8119 14.9083 47.83 14.9255 47.8666 14.9465ZM14.7399 14.975C14.6402 15.0291 14.6463 15.0516 14.7466 14.9998C14.7906 14.9771 14.8266 14.9527 14.8266 14.9457C14.8266 14.9286 14.8238 14.9295 14.7399 14.975ZM48.2689 15.1297C48.2962 15.1543 48.4532 15.2265 48.4532 15.2145C48.4532 15.1991 48.3054 15.1198 48.2767 15.1198C48.2663 15.1198 48.2626 15.1243 48.2689 15.1297ZM48.4822 15.2353C48.5194 15.2652 49.2882 15.6534 49.2666 15.6315C49.2338 15.5982 48.5241 15.2265 48.4932 15.2265C48.481 15.2265 48.4761 15.2305 48.4822 15.2353ZM13.833 15.5335C13.6902 15.6291 13.5732 15.7134 13.5732 15.7209C13.5732 15.734 14.0412 15.4292 14.0919 15.3828C14.1551 15.3252 14.0732 15.3729 13.833 15.5335ZM13.0199 16.1204C12.899 16.2159 12.7999 16.2999 12.7999 16.3071C12.7999 16.3143 12.9018 16.2403 13.0266 16.1427C13.2266 15.9859 13.2716 15.9459 13.2466 15.9467C13.243 15.9468 13.1409 16.0251 13.0199 16.1204ZM49.8932 16.0092C49.8932 16.0163 49.9562 16.0606 50.0332 16.1079C50.1103 16.1553 50.2002 16.2118 50.2332 16.2334C50.2663 16.255 50.2932 16.2663 50.2932 16.2585C50.2932 16.2508 50.2183 16.1977 50.1266 16.1403C49.9017 15.9995 49.8932 15.9948 49.8932 16.0092ZM12.3466 16.6956L12.1199 16.911L12.3532 16.7044C12.562 16.5195 12.6026 16.4793 12.5799 16.4799C12.5762 16.4801 12.4713 16.5771 12.3466 16.6956ZM22.6732 16.6582C22.699 16.6649 22.7409 16.6649 22.7666 16.6582C22.7922 16.6515 22.7713 16.646 22.7199 16.646C22.6686 16.646 22.6476 16.6515 22.6732 16.6582ZM50.8532 16.6483C50.8532 16.6547 50.9223 16.7118 51.0066 16.7751C51.091 16.8383 51.1455 16.8723 51.1278 16.8503C51.0916 16.8055 50.8532 16.63 50.8532 16.6483ZM18.2332 16.8684C18.1929 16.8902 18.1599 16.9142 18.1599 16.9215C18.1599 16.9289 18.187 16.9203 18.2199 16.9022C18.2529 16.8841 18.3279 16.8612 18.3866 16.8513L18.4932 16.8331L18.3999 16.8308C18.3486 16.8295 18.2735 16.8465 18.2332 16.8684ZM11.8791 17.1265C11.5794 17.4399 11.3999 17.638 11.463 17.5855C11.5348 17.5259 12.0647 16.9598 12.0487 16.9598C12.0431 16.9598 11.9666 17.0348 11.8791 17.1265ZM22.1183 17.0998L22.0399 17.1865L22.1266 17.1081C22.1743 17.0651 22.2132 17.026 22.2132 17.0214C22.2132 17.0009 22.1913 17.019 22.1183 17.0998ZM51.5732 17.2067C51.5732 17.2132 51.6602 17.2953 51.7666 17.3889C51.8729 17.4825 51.9431 17.5379 51.9228 17.5121C51.8783 17.4559 51.5732 17.1892 51.5732 17.2067ZM19.6799 17.319C19.6799 17.3263 19.7519 17.3687 19.8399 17.4131C19.9279 17.4575 19.9999 17.4879 19.9999 17.4806C19.9999 17.4732 19.9279 17.4308 19.8399 17.3865C19.7519 17.342 19.6799 17.3116 19.6799 17.319ZM46.3466 17.4398C46.4273 17.4823 46.5052 17.5172 46.5199 17.5172C46.5346 17.5172 46.4806 17.4823 46.3999 17.4398C46.3193 17.3972 46.2412 17.3623 46.2266 17.3623C46.2119 17.3623 46.2658 17.3972 46.3466 17.4398ZM52.401 17.9849C52.629 18.2204 52.8913 18.4971 52.9839 18.5998C53.1167 18.747 53.1278 18.7555 53.0361 18.6398C52.9722 18.5591 52.71 18.2823 52.4532 18.0249L51.9866 17.5567L52.401 17.9849ZM11.2471 17.8198C11.0759 18.018 10.8786 18.2697 10.9388 18.2131C10.9988 18.1566 11.4154 17.6531 11.402 17.6531C11.3961 17.6531 11.3263 17.7281 11.2471 17.8198ZM25.2799 18.0398C25.3596 18.1204 25.4308 18.1865 25.4382 18.1865C25.4454 18.1865 25.3863 18.1204 25.3066 18.0398C25.227 17.9591 25.1558 17.8931 25.1484 17.8931C25.141 17.8931 25.2002 17.9591 25.2799 18.0398ZM20.7732 17.9815C20.7732 17.9881 20.8174 18.027 20.8711 18.0681C20.925 18.1092 20.9606 18.1292 20.9503 18.1126C20.9292 18.0783 20.7732 17.963 20.7732 17.9815ZM42.9599 18.0665C42.9966 18.0875 43.0386 18.1046 43.0532 18.1046C43.0679 18.1046 43.05 18.0875 43.0132 18.0665C42.9766 18.0455 42.9346 18.0283 42.9199 18.0283C42.9052 18.0283 42.9233 18.0455 42.9599 18.0665ZM56.5582 18.1665C56.5711 18.1995 56.6833 18.4785 56.8074 18.7865C58.8921 23.9563 58.965 30.0631 57.0039 35.2076C56.9154 35.4396 56.8759 35.4265 57.6666 35.426C59.7306 35.4243 60.8186 34.5718 61.6897 32.274C61.8386 31.8812 61.8377 31.9038 61.7073 31.883C60.7164 31.7246 59.7935 30.8923 59.453 29.85C59.2938 29.3627 59.2836 29.143 59.3617 27.8931C59.5463 24.9415 58.8679 21.4745 57.5615 18.6924C57.2935 18.1215 57.3196 18.1524 57.0862 18.1291C56.6772 18.0881 56.5314 18.0983 56.5582 18.1665ZM6.1332 18.2135C5.58456 18.2876 4.73992 18.4481 4.70728 18.4844C4.70296 18.4892 4.62152 18.6131 4.526 18.7598C2.63944 21.6607 1.70584 26.1286 1.97496 30.9678L1.99992 31.4156L2.19864 31.9553C2.41848 32.5526 2.60952 32.9993 2.75992 33.2681L2.85896 33.4452L3.00936 33.4283C4.17672 33.2969 4.64856 32.1927 4.46872 30.0131C4.18456 26.5697 4.98664 22.3435 6.71176 18.1931C6.73064 18.1478 6.582 18.1531 6.1332 18.2135ZM25.4666 18.2214C25.4666 18.226 25.5055 18.2651 25.5532 18.3081L25.6399 18.3865L25.5615 18.2998C25.4886 18.219 25.4666 18.2009 25.4666 18.2214ZM44.1866 18.6531C44.2818 18.703 44.3719 18.7438 44.3866 18.7438C44.4012 18.7438 44.3353 18.703 44.2399 18.6531C44.1446 18.6031 44.0546 18.5623 44.0399 18.5623C44.0252 18.5623 44.0913 18.6031 44.1866 18.6531ZM10.539 18.7398C10.4134 18.9265 10.3937 18.9598 10.4078 18.9598C10.4138 18.9598 10.4746 18.8758 10.543 18.7731C10.6111 18.6705 10.6614 18.5865 10.6545 18.5865C10.6476 18.5865 10.5956 18.6555 10.539 18.7398ZM48.4932 18.6323C48.5353 18.6747 48.9332 18.9363 48.9332 18.9214C48.9332 18.914 48.8463 18.8499 48.7399 18.7787C48.5199 18.6315 48.4532 18.5918 48.4932 18.6323ZM25.7679 18.7998C25.7679 18.8804 25.7729 18.9134 25.779 18.8731C25.7852 18.8327 25.7852 18.7668 25.779 18.7265C25.7729 18.6862 25.7679 18.7191 25.7679 18.7998ZM16.7546 19.0131C16.7546 19.0937 16.7596 19.1268 16.7657 19.0865C16.7718 19.0462 16.7718 18.9801 16.7657 18.9398C16.7596 18.8995 16.7546 18.9324 16.7546 19.0131ZM53.5476 19.3174C53.5978 19.3871 53.6503 19.4513 53.6644 19.4599C53.6785 19.4687 53.6489 19.4187 53.5988 19.3489C53.5487 19.2791 53.4962 19.215 53.4822 19.2062C53.4681 19.1975 53.4975 19.2475 53.5476 19.3174ZM45.6799 19.3987C45.6799 19.406 45.7279 19.4366 45.7866 19.4665C45.8452 19.4964 45.8932 19.5148 45.8932 19.5075C45.8932 19.5003 45.8452 19.4697 45.7866 19.4398C45.7279 19.4099 45.6799 19.3913 45.6799 19.3987ZM9.99992 19.5998C9.97 19.6585 9.95144 19.7065 9.9588 19.7065C9.96616 19.7065 9.99672 19.6585 10.0266 19.5998C10.0566 19.5411 10.075 19.4931 10.0676 19.4931C10.0604 19.4931 10.0298 19.5411 9.99992 19.5998ZM25.1593 19.8465L24.9732 20.0398L25.1666 19.8539C25.3462 19.6811 25.3721 19.6531 25.3526 19.6531C25.3484 19.6531 25.2615 19.7401 25.1593 19.8465ZM9.82664 19.9198C9.77496 20.0225 9.73864 20.1065 9.74584 20.1065C9.7532 20.1065 9.80152 20.0225 9.8532 19.9198C9.90488 19.8171 9.9412 19.7331 9.934 19.7331C9.92664 19.7331 9.87832 19.8171 9.82664 19.9198ZM17.0799 19.8398C17.1372 19.8985 17.19 19.9465 17.1974 19.9465C17.2047 19.9465 17.1639 19.8985 17.1066 19.8398C17.0494 19.7811 16.9964 19.7331 16.989 19.7331C16.9818 19.7331 17.0226 19.7811 17.0799 19.8398ZM53.9386 19.874C53.9503 19.8929 54.0303 20.0249 54.1166 20.1675C54.2583 20.402 54.3433 20.5171 54.2633 20.3665C54.1977 20.243 53.9428 19.8398 53.9303 19.8398C53.9231 19.8398 53.9268 19.8553 53.9386 19.874ZM46.6132 19.9051C46.6132 19.9124 46.6492 19.9371 46.6932 19.9598C46.7372 19.9825 46.7732 19.9951 46.7732 19.9878C46.7732 19.9804 46.7372 19.9559 46.6932 19.9331C46.6492 19.9103 46.6132 19.8977 46.6132 19.9051ZM50.2399 19.9281C50.2399 19.9327 50.279 19.9718 50.3266 20.0148L50.4132 20.0931L50.335 20.0065C50.262 19.9257 50.2399 19.9075 50.2399 19.9281ZM22.8132 20.2665C22.9004 20.3545 22.9775 20.4265 22.9849 20.4265C22.9922 20.4265 22.927 20.3545 22.8399 20.2665C22.7529 20.1785 22.6756 20.1065 22.6682 20.1065C22.6609 20.1065 22.7262 20.1785 22.8132 20.2665ZM50.4532 20.1148C50.4532 20.1195 50.4922 20.1583 50.5399 20.2014L50.6266 20.2798L50.5482 20.1931C50.4753 20.1123 50.4532 20.0942 50.4532 20.1148ZM21.1199 20.3865C21.0551 20.4524 21.0081 20.5065 21.0154 20.5065C21.0228 20.5065 21.0818 20.4524 21.1466 20.3865C21.2114 20.3204 21.2583 20.2665 21.251 20.2665C21.2438 20.2665 21.1847 20.3204 21.1199 20.3865ZM50.9599 20.5998C51.0545 20.6951 51.1377 20.7731 51.145 20.7731C51.1524 20.7731 51.081 20.6951 50.9866 20.5998C50.8921 20.5044 50.8087 20.4265 50.8015 20.4265C50.7942 20.4265 50.8654 20.5044 50.9599 20.5998ZM20.8383 20.6465L20.7599 20.7331L20.8466 20.6548C20.8943 20.6118 20.9332 20.5727 20.9332 20.5681C20.9332 20.5475 20.9113 20.5657 20.8383 20.6465ZM9.21576 21.2689C9.16152 21.4103 9.12184 21.5305 9.12728 21.5361C9.13272 21.5415 9.18152 21.4302 9.23544 21.2887C9.28952 21.1471 9.3292 21.027 9.32392 21.0215C9.31848 21.0161 9.26984 21.1275 9.21576 21.2689ZM51.3599 21.0214C51.3599 21.026 51.399 21.0651 51.4466 21.1081L51.5332 21.1865L51.455 21.0998C51.382 21.019 51.3599 21.0009 51.3599 21.0214ZM54.6721 21.1873C54.6929 21.2596 54.9439 21.8113 54.9522 21.803C54.9636 21.7916 54.7751 21.3535 54.71 21.2398C54.6847 21.1958 54.6676 21.1721 54.6721 21.1873ZM49.8666 21.9295C49.8666 21.9367 49.9026 21.9684 49.9466 21.9998C49.9906 22.0311 50.0266 22.0508 50.0266 22.0435C50.0266 22.0361 49.9906 22.0044 49.9466 21.9731C49.9026 21.9419 49.8666 21.9222 49.8666 21.9295ZM52.1866 22.0265C52.2178 22.0705 52.2495 22.1065 52.2569 22.1065C52.2642 22.1065 52.2446 22.0705 52.2132 22.0265C52.182 21.9825 52.1503 21.9465 52.143 21.9465C52.1356 21.9465 52.1553 21.9825 52.1866 22.0265ZM36.2999 22.5523C36.3402 22.5583 36.4063 22.5583 36.4466 22.5523C36.487 22.5462 36.454 22.5411 36.3732 22.5411C36.2926 22.5411 36.2596 22.5462 36.2999 22.5523ZM35.646 22.579C35.6934 22.5849 35.7774 22.5851 35.8327 22.5793C35.8879 22.5735 35.8492 22.5686 35.7466 22.5686C35.6439 22.5684 35.5986 22.5731 35.646 22.579ZM36.954 22.5793C37.0167 22.5849 37.1127 22.5849 37.1673 22.5791C37.2218 22.5734 37.1706 22.5689 37.0532 22.5689C36.9359 22.5691 36.8913 22.5737 36.954 22.5793ZM55.2306 22.5865C55.2306 22.6084 55.2468 22.6684 55.2666 22.7198C55.2863 22.7711 55.3025 22.7951 55.3025 22.7731C55.3025 22.7511 55.2863 22.6911 55.2666 22.6398C55.2468 22.5884 55.2306 22.5644 55.2306 22.5865ZM35.2999 22.6052C35.3329 22.6116 35.387 22.6116 35.4199 22.6052C35.4529 22.599 35.4258 22.5937 35.3599 22.5937C35.294 22.5937 35.267 22.599 35.2999 22.6052ZM37.3932 22.6055C37.4335 22.6116 37.4996 22.6116 37.5399 22.6055C37.5802 22.5995 37.5473 22.5945 37.4666 22.5945C37.3858 22.5945 37.3529 22.5995 37.3932 22.6055ZM35.0732 22.6315C35.099 22.6382 35.1409 22.6382 35.1666 22.6315C35.1922 22.6247 35.1713 22.6193 35.1199 22.6193C35.0686 22.6193 35.0476 22.6247 35.0732 22.6315ZM37.6999 22.6319C37.7329 22.6383 37.787 22.6383 37.8199 22.6319C37.8529 22.6255 37.8258 22.6204 37.7599 22.6204C37.694 22.6204 37.667 22.6255 37.6999 22.6319ZM37.9799 22.6582C38.0055 22.6649 38.0476 22.6649 38.0732 22.6582C38.099 22.6515 38.0778 22.646 38.0266 22.646C37.9753 22.646 37.9543 22.6515 37.9799 22.6582ZM55.3106 22.8531C55.3106 22.8751 55.3268 22.9351 55.3466 22.9865C55.3663 23.0377 55.3825 23.0617 55.3825 23.0398C55.3825 23.0177 55.3663 22.9577 55.3466 22.9065C55.3268 22.8551 55.3106 22.8311 55.3106 22.8531ZM52.8132 22.9865C52.8361 23.0305 52.8606 23.0665 52.8679 23.0665C52.8753 23.0665 52.8626 23.0305 52.8399 22.9865C52.8172 22.9425 52.7926 22.9065 52.7852 22.9065C52.7778 22.9065 52.7905 22.9425 52.8132 22.9865ZM21.554 23.086C21.6242 23.0916 21.7322 23.0915 21.794 23.0859C21.8559 23.0804 21.7986 23.0758 21.6666 23.0759C21.5346 23.0759 21.4839 23.0806 21.554 23.086ZM23.074 23.086C23.1442 23.0916 23.2522 23.0915 23.314 23.0859C23.3759 23.0804 23.3186 23.0758 23.1866 23.0759C23.0546 23.0759 23.0039 23.0806 23.074 23.086ZM21.1002 23.1123C21.1409 23.1183 21.2009 23.1182 21.2337 23.1119C21.2665 23.1055 21.2332 23.1006 21.1599 23.1007C21.0866 23.1009 21.0598 23.1062 21.1002 23.1123ZM23.6737 23.1124C23.7217 23.1183 23.7937 23.1182 23.8337 23.1121C23.8738 23.106 23.8346 23.1012 23.7466 23.1014C23.6586 23.1015 23.6258 23.1065 23.6737 23.1124ZM55.3873 23.1087C55.3886 23.1567 55.5418 23.719 55.5442 23.6846C55.547 23.6444 55.4148 23.1124 55.3978 23.0955C55.3916 23.0892 55.387 23.0953 55.3873 23.1087ZM8.60056 23.3471C8.57432 23.4724 8.558 23.5801 8.5644 23.5865C8.5708 23.5929 8.59736 23.4955 8.62344 23.3699C8.64952 23.2444 8.66584 23.1367 8.6596 23.1305C8.65336 23.1244 8.6268 23.2219 8.60056 23.3471ZM20.727 23.139C20.7674 23.1451 20.8274 23.1449 20.8602 23.1385C20.893 23.1323 20.8599 23.1271 20.7866 23.1275C20.7132 23.1276 20.6865 23.1327 20.727 23.139ZM24.087 23.139C24.1274 23.1451 24.1874 23.1449 24.2202 23.1385C24.253 23.1323 24.2199 23.1271 24.1466 23.1275C24.0732 23.1276 24.0465 23.1327 24.087 23.139ZM20.447 23.1654C20.4801 23.1716 20.5281 23.1715 20.5535 23.1647C20.5791 23.158 20.5519 23.1529 20.4932 23.1532C20.4346 23.1535 20.4137 23.159 20.447 23.1654ZM24.4199 23.1652C24.4529 23.1716 24.507 23.1716 24.5399 23.1652C24.5729 23.159 24.5458 23.1537 24.4799 23.1537C24.4138 23.1537 24.387 23.159 24.4199 23.1652ZM52.9466 23.2265C52.9694 23.2705 52.994 23.3065 53.0014 23.3065C53.0086 23.3065 52.9961 23.2705 52.9732 23.2265C52.9505 23.1825 52.9258 23.1465 52.9185 23.1465C52.9113 23.1465 52.9238 23.1825 52.9466 23.2265ZM20.207 23.1919C20.2401 23.1983 20.2881 23.1982 20.3135 23.1915C20.3391 23.1847 20.3119 23.1796 20.2532 23.1798C20.1946 23.1801 20.1737 23.1855 20.207 23.1919ZM24.6866 23.1919C24.7196 23.1983 24.7735 23.1983 24.8066 23.1919C24.8396 23.1855 24.8126 23.1804 24.7466 23.1804C24.6806 23.1804 24.6535 23.1855 24.6866 23.1919ZM19.9799 23.2182C20.0055 23.2249 20.0476 23.2249 20.0732 23.2182C20.099 23.2115 20.0778 23.206 20.0266 23.206C19.9753 23.206 19.9543 23.2115 19.9799 23.2182ZM24.9535 23.2187C24.9868 23.2251 25.0348 23.2247 25.0602 23.2182C25.0857 23.2115 25.0586 23.2062 24.9999 23.2065C24.9412 23.2068 24.9204 23.2123 24.9535 23.2187ZM19.7932 23.2449C19.819 23.2515 19.8609 23.2515 19.8866 23.2449C19.9122 23.2382 19.8913 23.2326 19.8399 23.2326C19.7886 23.2326 19.7676 23.2382 19.7932 23.2449ZM25.1799 23.2449C25.2055 23.2515 25.2476 23.2515 25.2732 23.2449C25.299 23.2382 25.2778 23.2326 25.2266 23.2326C25.1753 23.2326 25.1543 23.2382 25.1799 23.2449ZM25.3932 23.2715C25.419 23.2782 25.4609 23.2782 25.4866 23.2715C25.5122 23.2647 25.4913 23.2593 25.4399 23.2593C25.3886 23.2593 25.3676 23.2647 25.3932 23.2715ZM32.5866 23.3331C32.5353 23.3612 32.5052 23.3843 32.5199 23.3843C32.5346 23.3843 32.5886 23.3612 32.6399 23.3331C32.6913 23.3051 32.7212 23.282 32.7066 23.282C32.6919 23.282 32.6378 23.3051 32.5866 23.3331ZM25.9783 23.3495C26.0031 23.3571 26.0294 23.3833 26.0367 23.4081C26.0465 23.4407 26.0487 23.4385 26.0447 23.4001C26.0415 23.3691 26.0174 23.3447 25.9863 23.3415C25.9478 23.3377 25.9457 23.3399 25.9783 23.3495ZM52.0932 23.7331C52.1655 23.8065 52.2306 23.8665 52.2378 23.8665C52.2452 23.8665 52.1921 23.8065 52.1199 23.7331C52.0478 23.6598 51.9826 23.5998 51.9753 23.5998C51.9679 23.5998 52.021 23.6598 52.0932 23.7331ZM8.49448 23.8811C8.48424 23.9491 8.48136 24.0102 8.48808 24.0167C8.49464 24.0235 8.50856 23.9732 8.51864 23.9052C8.52888 23.8372 8.53176 23.7761 8.5252 23.7694C8.51848 23.7628 8.50472 23.8129 8.49448 23.8811ZM17.1066 23.9075C17.0399 23.9395 17.0377 23.9431 17.0932 23.9297C17.1689 23.9111 17.2537 23.8679 17.2132 23.8684C17.1986 23.8687 17.1506 23.8862 17.1066 23.9075ZM26.1406 24.2131C26.1406 24.2791 26.1457 24.3062 26.1521 24.2731C26.1585 24.2401 26.1585 24.1862 26.1521 24.1531C26.1457 24.1201 26.1406 24.1471 26.1406 24.2131ZM53.4553 24.3465C53.465 24.3831 53.4841 24.4311 53.4977 24.4531C53.515 24.4809 53.517 24.4727 53.5046 24.4265C53.4948 24.3899 53.4758 24.3417 53.4622 24.3198C53.4449 24.2919 53.4428 24.3001 53.4553 24.3465ZM30.8394 24.5931L30.5732 24.8665L30.8466 24.6003C31.1004 24.3531 31.1321 24.3198 31.1127 24.3198C31.1089 24.3198 30.9858 24.4428 30.8394 24.5931ZM52.8521 24.4865C52.9626 24.6043 52.9866 24.6254 52.9866 24.6054C52.9866 24.6011 52.9295 24.5441 52.8599 24.4787L52.7332 24.3598L52.8521 24.4865ZM15.8332 24.4683C15.7636 24.5044 15.7066 24.5401 15.7066 24.5475C15.7066 24.5547 15.7666 24.5303 15.8399 24.4931C15.9132 24.4559 15.9732 24.4198 15.9732 24.4127C15.9732 24.395 15.9756 24.394 15.8332 24.4683ZM26.1399 24.8931C26.1402 24.9518 26.1457 24.9726 26.1521 24.9395C26.1585 24.9063 26.1583 24.8583 26.1516 24.8327C26.1449 24.8073 26.1398 24.8345 26.1399 24.8931ZM46.3732 25.1331C46.41 25.154 46.4519 25.1713 46.4666 25.1713C46.4812 25.1713 46.4633 25.154 46.4266 25.1331C46.39 25.1121 46.3479 25.095 46.3332 25.095C46.3186 25.095 46.3366 25.1121 46.3732 25.1331ZM8.29944 25.3865C8.29944 25.4377 8.30488 25.4588 8.3116 25.4331C8.31832 25.4075 8.31832 25.3654 8.3116 25.3398C8.30488 25.3142 8.29944 25.3351 8.29944 25.3865ZM53.7599 25.5081C53.7599 25.5342 53.7476 25.5422 53.7266 25.5295C53.7039 25.5159 53.705 25.5239 53.7298 25.5547C53.7759 25.6115 53.7738 25.6123 53.7804 25.5331C53.7834 25.4964 53.7801 25.4665 53.7729 25.4665C53.7658 25.4665 53.7599 25.4852 53.7599 25.5081ZM14.2249 25.5798L14.1466 25.6665L14.2332 25.5881C14.314 25.5151 14.3322 25.4931 14.3116 25.4931C14.307 25.4931 14.2679 25.5321 14.2249 25.5798ZM55.8462 25.6265C55.8462 25.6777 55.8516 25.6988 55.8583 25.6731C55.865 25.6475 55.865 25.6054 55.8583 25.5798C55.8516 25.5542 55.8462 25.5751 55.8462 25.6265ZM8.27336 25.6931C8.27368 25.7518 8.27912 25.7726 8.28552 25.7395C8.29176 25.7063 8.2916 25.6583 8.28488 25.6327C8.27816 25.6073 8.27304 25.6345 8.27336 25.6931ZM47.7332 25.7731C47.8286 25.823 47.9186 25.8638 47.9332 25.8638C47.9479 25.8638 47.8818 25.823 47.7866 25.7731C47.6913 25.7231 47.6012 25.6823 47.5866 25.6823C47.5719 25.6823 47.6378 25.7231 47.7332 25.7731ZM13.8926 25.8865L13.7199 26.0665L13.8999 25.8939C14.0671 25.7335 14.0921 25.7065 14.0726 25.7065C14.0684 25.7065 13.9874 25.7875 13.8926 25.8865ZM55.8742 25.9598C55.8745 26.0331 55.8796 26.0599 55.8857 26.0195C55.8919 25.9788 55.8918 25.9188 55.8854 25.886C55.879 25.8532 55.874 25.8865 55.8742 25.9598ZM29.7466 26.0265C29.7238 26.0705 29.7113 26.1065 29.7185 26.1065C29.7258 26.1065 29.7505 26.0705 29.7732 26.0265C29.7961 25.9825 29.8086 25.9465 29.8014 25.9465C29.794 25.9465 29.7694 25.9825 29.7466 26.0265ZM8.2476 26.0931C8.24776 26.1665 8.25288 26.1932 8.25912 26.1527C8.2652 26.1123 8.26504 26.0523 8.25864 26.0195C8.2524 25.9867 8.24728 26.0198 8.2476 26.0931ZM13.6116 26.1931L13.5332 26.2798L13.6199 26.2014C13.6676 26.1583 13.7066 26.1195 13.7066 26.1148C13.7066 26.0942 13.6846 26.1123 13.6116 26.1931ZM25.8175 26.2276C25.7729 26.3257 25.7814 26.3465 25.8297 26.2574C25.8522 26.2158 25.8658 26.1767 25.8596 26.1707C25.8535 26.1646 25.8346 26.1902 25.8175 26.2276ZM55.9022 26.3731C55.9022 26.4831 55.907 26.5281 55.9127 26.4731C55.9185 26.4182 55.9185 26.3281 55.9127 26.2731C55.907 26.2182 55.9022 26.2631 55.9022 26.3731ZM48.9066 26.3587C48.9066 26.366 48.9546 26.3966 49.0132 26.4265C49.0719 26.4564 49.1199 26.4748 49.1199 26.4675C49.1199 26.4603 49.0719 26.4297 49.0132 26.3998C48.9546 26.3699 48.9066 26.3513 48.9066 26.3587ZM8.22504 27.2798C8.22504 27.7271 8.22872 27.9102 8.2332 27.6865C8.23768 27.4628 8.23768 27.0967 8.2332 26.8731C8.22872 26.6494 8.22504 26.8324 8.22504 27.2798ZM25.279 27.0065L25.1332 27.1598L25.2866 27.014C25.371 26.9339 25.4399 26.8649 25.4399 26.8607C25.4399 26.8409 25.4145 26.8639 25.279 27.0065ZM55.9306 27.2665C55.9308 27.5011 55.9348 27.5935 55.9398 27.4718C55.9447 27.3502 55.9447 27.1582 55.9398 27.0452C55.9348 26.9323 55.9306 27.0318 55.9306 27.2665ZM50.2666 27.1051C50.2666 27.1124 50.3026 27.1371 50.3466 27.1598C50.3906 27.1825 50.4266 27.1951 50.4266 27.1878C50.4266 27.1804 50.3906 27.1559 50.3466 27.1331C50.3026 27.1103 50.2666 27.0977 50.2666 27.1051ZM34.5132 27.2727C34.583 27.2782 34.6969 27.2782 34.7666 27.2727C34.8362 27.2673 34.7793 27.2627 34.6399 27.2627C34.5006 27.2627 34.4436 27.2673 34.5132 27.2727ZM33.5799 27.2988C33.6202 27.3051 33.6863 27.3051 33.7266 27.2988C33.767 27.2927 33.734 27.2878 33.6532 27.2878C33.5726 27.2878 33.5396 27.2927 33.5799 27.2988ZM35.6204 27.2991C35.6684 27.3051 35.7404 27.3049 35.7804 27.2988C35.8204 27.2927 35.7812 27.2879 35.6932 27.2881C35.6052 27.2883 35.5724 27.2932 35.6204 27.2991ZM33.1532 27.3249C33.179 27.3315 33.2209 27.3315 33.2466 27.3249C33.2722 27.3182 33.2513 27.3126 33.1999 27.3126C33.1486 27.3126 33.1276 27.3182 33.1532 27.3249ZM36.1802 27.3254C36.2134 27.3316 36.2614 27.3315 36.287 27.3247C36.3124 27.318 36.2852 27.3129 36.2266 27.3132C36.1679 27.3135 36.1471 27.319 36.1802 27.3254ZM36.5666 27.3515C36.5922 27.3582 36.6343 27.3582 36.6599 27.3515C36.6855 27.3447 36.6646 27.3393 36.6132 27.3393C36.5618 27.3393 36.5409 27.3447 36.5666 27.3515ZM30.9999 27.6531C30.9663 27.6676 30.9614 27.6761 30.9866 27.6761C31.0086 27.6761 31.0506 27.6657 31.0799 27.6531C31.1135 27.6387 31.1185 27.6302 31.0932 27.6302C31.0713 27.6302 31.0292 27.6406 30.9999 27.6531ZM39.2866 27.6449C39.3122 27.6515 39.3543 27.6515 39.3799 27.6449C39.4055 27.6382 39.3846 27.6326 39.3332 27.6326C39.2818 27.6326 39.2609 27.6382 39.2866 27.6449ZM39.6599 27.6982C39.6855 27.7049 39.7276 27.7049 39.7532 27.6982C39.779 27.6915 39.7578 27.686 39.7066 27.686C39.6553 27.686 39.6343 27.6915 39.6599 27.6982ZM30.7066 27.7331C30.673 27.7476 30.6681 27.7561 30.6932 27.7561C30.7153 27.7561 30.7572 27.7457 30.7866 27.7331C30.8202 27.7187 30.8252 27.7102 30.7999 27.7102C30.7778 27.7102 30.7359 27.7206 30.7066 27.7331ZM22.701 27.8329C22.8006 27.838 22.9566 27.838 23.0478 27.8329C23.1388 27.8276 23.0572 27.8235 22.8666 27.8235C22.6759 27.8235 22.6014 27.8278 22.701 27.8329ZM21.9799 27.8588C22.0202 27.8651 22.0863 27.8651 22.1266 27.8588C22.167 27.8527 22.1338 27.8478 22.0532 27.8478C21.9726 27.8478 21.9396 27.8527 21.9799 27.8588ZM21.4866 27.8852C21.5196 27.8916 21.5735 27.8916 21.6066 27.8852C21.6396 27.879 21.6126 27.8737 21.5466 27.8737C21.4806 27.8737 21.4535 27.879 21.4866 27.8852ZM21.1266 27.9115C21.1522 27.9182 21.1943 27.9182 21.2199 27.9115C21.2455 27.9047 21.2246 27.8993 21.1732 27.8993C21.1218 27.8993 21.1009 27.9047 21.1266 27.9115ZM20.7799 27.9382C20.8055 27.9449 20.8476 27.9449 20.8732 27.9382C20.899 27.9315 20.8778 27.926 20.8266 27.926C20.7753 27.926 20.7543 27.9315 20.7799 27.9382ZM55.9023 28.1998C55.9025 28.3171 55.9071 28.3619 55.9129 28.2991C55.9185 28.2364 55.9183 28.1404 55.9126 28.0857C55.907 28.0311 55.9023 28.0825 55.9023 28.1998ZM8.2476 28.4398C8.24776 28.5131 8.25288 28.5399 8.25912 28.4995C8.2652 28.4588 8.26504 28.3988 8.25864 28.366C8.2524 28.3332 8.24728 28.3665 8.2476 28.4398ZM23.5534 28.4398C23.5537 28.4985 23.5591 28.5193 23.5655 28.4862C23.5718 28.4529 23.5716 28.4049 23.5649 28.3795C23.5582 28.354 23.553 28.3811 23.5534 28.4398ZM55.8746 28.6398C55.8746 28.7204 55.8796 28.7534 55.8857 28.7131C55.8918 28.6727 55.8918 28.6068 55.8857 28.5665C55.8796 28.5262 55.8746 28.5591 55.8746 28.6398ZM8.27336 28.8398C8.27368 28.8985 8.27912 28.9193 8.28552 28.8862C8.29176 28.8529 8.2916 28.8049 8.28488 28.7795C8.27816 28.754 8.27304 28.7811 8.27336 28.8398ZM23.5534 28.9998C23.5537 29.0585 23.5591 29.0793 23.5655 29.0462C23.5718 29.0129 23.5716 28.9649 23.5649 28.9395C23.5582 28.914 23.553 28.9411 23.5534 28.9998ZM52.8892 29.1198C52.8892 29.2444 52.8938 29.2955 52.8994 29.2331C52.905 29.1708 52.905 29.0687 52.8994 29.0065C52.8938 28.9441 52.8892 28.9951 52.8892 29.1198ZM55.8466 28.9998C55.847 29.0585 55.8524 29.0793 55.8588 29.0462C55.8652 29.0129 55.8649 28.9649 55.8583 28.9395C55.8516 28.914 55.8463 28.9411 55.8466 28.9998ZM8.29944 29.1465C8.29944 29.1977 8.30488 29.2188 8.3116 29.1931C8.31832 29.1675 8.31832 29.1254 8.3116 29.0998C8.30488 29.0742 8.29944 29.0951 8.29944 29.1465ZM55.8194 29.2798C55.8194 29.3311 55.8249 29.3521 55.8316 29.3265C55.8383 29.3007 55.8383 29.2588 55.8316 29.2331C55.8249 29.2075 55.8194 29.2284 55.8194 29.2798ZM12.2762 29.5731C12.2762 29.7124 12.2807 29.7694 12.2862 29.6998C12.2918 29.6302 12.2918 29.5161 12.2862 29.4465C12.2807 29.3767 12.2762 29.4339 12.2762 29.5731ZM14.4122 29.6865L14.2799 29.8265L14.4199 29.6942C14.55 29.5711 14.5721 29.5465 14.5522 29.5465C14.5481 29.5465 14.485 29.6094 14.4122 29.6865ZM52.9156 29.7331C52.9156 29.8431 52.9202 29.8881 52.926 29.8331C52.9318 29.7782 52.9318 29.6881 52.926 29.6331C52.9202 29.5782 52.9156 29.6231 52.9156 29.7331ZM24.5911 29.5998C24.5924 29.6691 24.6345 29.7828 24.6354 29.7198C24.6358 29.6905 24.6258 29.6425 24.6132 29.6131C24.5993 29.5804 24.5906 29.5753 24.5911 29.5998ZM48.3599 29.5998C48.3892 29.6124 48.4313 29.6227 48.4532 29.6227C48.4785 29.6227 48.4735 29.6142 48.4399 29.5998C48.4106 29.5871 48.3686 29.5769 48.3466 29.5769C48.3214 29.5769 48.3263 29.5854 48.3599 29.5998ZM23.3375 29.9076C23.2929 30.0057 23.3014 30.0265 23.3497 29.9374C23.3722 29.8958 23.3858 29.8567 23.3796 29.8507C23.3735 29.8446 23.3546 29.8702 23.3375 29.9076ZM24.6734 30.0131C24.6737 30.0718 24.6791 30.0926 24.6855 30.0595C24.6918 30.0263 24.6916 29.9783 24.6849 29.9527C24.6782 29.9273 24.673 29.9545 24.6734 30.0131ZM49.4327 30.0457C49.4799 30.0516 49.5639 30.0516 49.6193 30.0459C49.6746 30.0401 49.6359 30.0353 49.5332 30.0351C49.4306 30.0351 49.3854 30.0398 49.4327 30.0457ZM48.8866 30.0723C48.927 30.0783 48.9929 30.0783 49.0332 30.0723C49.0735 30.0662 49.0406 30.0611 48.9599 30.0611C48.8793 30.0611 48.8463 30.0662 48.8866 30.0723ZM48.407 30.099C48.4474 30.1051 48.5074 30.1049 48.5402 30.0985C48.573 30.0923 48.5399 30.0871 48.4666 30.0875C48.3932 30.0876 48.3665 30.0927 48.407 30.099ZM47.9532 30.1255C47.9935 30.1316 48.0596 30.1316 48.0999 30.1255C48.1402 30.1195 48.1073 30.1145 48.0266 30.1145C47.9458 30.1145 47.9129 30.1195 47.9532 30.1255ZM52.942 30.2798C52.9422 30.3825 52.947 30.4212 52.9527 30.3659C52.9585 30.3105 52.9583 30.2265 52.9526 30.1791C52.9466 30.1318 52.9418 30.1771 52.942 30.2798ZM14.1406 30.2398C14.1406 30.3057 14.1457 30.3327 14.1521 30.2998C14.1585 30.2668 14.1585 30.2127 14.1521 30.1798C14.1457 30.1468 14.1406 30.1739 14.1406 30.2398ZM47.5932 30.1519C47.6263 30.1583 47.6802 30.1583 47.7132 30.1519C47.7463 30.1455 47.7193 30.1404 47.6532 30.1404C47.5873 30.1404 47.5602 30.1455 47.5932 30.1519ZM24.7023 30.3598C24.7025 30.4771 24.7071 30.5219 24.7129 30.4591C24.7185 30.3964 24.7183 30.3004 24.7126 30.2457C24.707 30.1911 24.7023 30.2425 24.7023 30.3598ZM47.2337 30.179C47.2742 30.1851 47.3342 30.1849 47.367 30.1785C47.3998 30.1723 47.3666 30.1671 47.2932 30.1675C47.2199 30.1676 47.193 30.1727 47.2337 30.179ZM46.887 30.2055C46.9274 30.2118 46.9874 30.2116 47.0202 30.2052C47.053 30.1988 47.0199 30.1939 46.9466 30.194C46.8732 30.1943 46.8465 30.1995 46.887 30.2055ZM46.6066 30.2319C46.6396 30.2383 46.6935 30.2383 46.7266 30.2319C46.7596 30.2255 46.7326 30.2204 46.6666 30.2204C46.6006 30.2204 46.5735 30.2255 46.6066 30.2319ZM46.3132 30.2587C46.3463 30.2649 46.4002 30.2649 46.4332 30.2587C46.4663 30.2523 46.4393 30.247 46.3732 30.247C46.3073 30.247 46.2802 30.2523 46.3132 30.2587ZM46.047 30.2854C46.0801 30.2916 46.1281 30.2915 46.1535 30.2847C46.1791 30.278 46.1519 30.2729 46.0932 30.2732C46.0346 30.2735 46.0137 30.279 46.047 30.2854ZM45.807 30.3119C45.8401 30.3183 45.8881 30.3182 45.9135 30.3115C45.9391 30.3047 45.9119 30.2996 45.8532 30.2998C45.7946 30.3001 45.7737 30.3055 45.807 30.3119ZM45.5532 30.3382C45.579 30.3449 45.6209 30.3449 45.6466 30.3382C45.6722 30.3315 45.6513 30.326 45.5999 30.326C45.5486 30.326 45.5276 30.3315 45.5532 30.3382ZM22.8266 30.6479C22.7458 30.7251 22.6439 30.8155 22.5999 30.8487C22.5452 30.8903 22.5394 30.8999 22.5817 30.8795C22.641 30.8505 23.0138 30.5086 22.9866 30.5079C22.9793 30.5076 22.9073 30.5707 22.8266 30.6479ZM24.6727 30.6931C24.6727 30.7444 24.6783 30.7654 24.685 30.7398C24.6916 30.7142 24.6916 30.6721 24.685 30.6465C24.6783 30.6207 24.6727 30.6417 24.6727 30.6931ZM14.3822 30.6843C14.4287 30.7395 14.7695 30.9339 14.8172 30.9324C14.8297 30.9321 14.7519 30.8851 14.6446 30.8279C14.537 30.771 14.423 30.7022 14.3911 30.6753L14.3332 30.6265L14.3822 30.6843ZM8.50904 30.7307C8.50568 30.8012 8.61992 31.406 8.63048 31.3731C8.63528 31.3585 8.61032 31.1964 8.57528 31.0131C8.54024 30.8299 8.51032 30.7027 8.50904 30.7307ZM52.9679 30.8798C52.9679 30.9604 52.9729 30.9934 52.979 30.9531C52.9852 30.9127 52.9852 30.8468 52.979 30.8065C52.9729 30.7662 52.9679 30.7991 52.9679 30.8798ZM22.3732 30.9731C22.3073 31.0084 22.2628 31.0379 22.2743 31.0385C22.3026 31.0403 22.5066 30.9355 22.5066 30.9193C22.5066 30.9015 22.5078 30.9011 22.3732 30.9731ZM55.4818 31.4284C55.4567 31.5548 55.4414 31.6635 55.4476 31.6697C55.4538 31.6759 55.4796 31.5777 55.5047 31.4511C55.5298 31.3247 55.5452 31.2161 55.539 31.2099C55.5326 31.2036 55.507 31.3019 55.4818 31.4284ZM52.9951 31.4665C52.9951 31.5617 52.9999 31.6007 53.0058 31.5531C53.0118 31.5054 53.0118 31.4275 53.0058 31.3798C52.9999 31.3321 52.9951 31.3711 52.9951 31.4665ZM16.9399 31.4049C16.9655 31.4115 17.0076 31.4115 17.0332 31.4049C17.059 31.3982 17.0378 31.3926 16.9866 31.3926C16.9353 31.3926 16.9143 31.3982 16.9399 31.4049ZM17.2066 31.4315C17.2322 31.4382 17.2743 31.4382 17.2999 31.4315C17.3255 31.4247 17.3046 31.4193 17.2532 31.4193C17.202 31.4193 17.1809 31.4247 17.2066 31.4315ZM20.3935 31.4319C20.4268 31.4383 20.4748 31.4382 20.5002 31.4315C20.5257 31.4247 20.4986 31.4196 20.4399 31.4198C20.3812 31.4201 20.3604 31.4255 20.3935 31.4319ZM17.5404 31.4591C17.5884 31.4651 17.6604 31.4649 17.7004 31.4588C17.7404 31.4527 17.7012 31.4479 17.6132 31.4481C17.5252 31.4483 17.4924 31.4532 17.5404 31.4591ZM20.0332 31.4588C20.0735 31.4651 20.1396 31.4651 20.1799 31.4588C20.2202 31.4527 20.1873 31.4478 20.1066 31.4478C20.0258 31.4478 19.9929 31.4527 20.0332 31.4588ZM18.0066 31.486C18.0762 31.4916 18.1903 31.4916 18.2599 31.486C18.3295 31.4806 18.2726 31.4761 18.1332 31.4761C17.9938 31.4761 17.9369 31.4806 18.0066 31.486ZM19.5007 31.486C19.5708 31.4916 19.6788 31.4915 19.7407 31.4859C19.8026 31.4804 19.7452 31.4758 19.6132 31.4759C19.4812 31.4759 19.4306 31.4806 19.5007 31.486ZM18.7799 31.5126C18.835 31.5183 18.9249 31.5183 18.9799 31.5126C19.035 31.5068 18.99 31.502 18.8799 31.502C18.77 31.502 18.7249 31.5068 18.7799 31.5126ZM8.67192 31.5865C8.67192 31.6158 8.68152 31.6699 8.6932 31.7065C8.71016 31.7593 8.71464 31.762 8.71464 31.7198C8.71464 31.6905 8.70504 31.6364 8.6932 31.5998C8.6764 31.547 8.67192 31.5443 8.67192 31.5865ZM51.2588 31.6195C51.357 31.6246 51.525 31.6247 51.6321 31.6196C51.7391 31.6145 51.6586 31.6103 51.4532 31.6103C51.2479 31.6102 51.1604 31.6143 51.2588 31.6195ZM52.3399 31.6196C52.4463 31.6246 52.6202 31.6246 52.7266 31.6196C52.8329 31.6145 52.7458 31.6103 52.5332 31.6103C52.3206 31.6103 52.2335 31.6145 52.3399 31.6196ZM50.727 31.6455C50.7674 31.6518 50.8274 31.6516 50.8602 31.6452C50.893 31.6388 50.8599 31.6339 50.7866 31.634C50.7132 31.6343 50.6865 31.6395 50.727 31.6455ZM50.4202 31.6719C50.4534 31.6783 50.5014 31.6782 50.527 31.6715C50.5524 31.6647 50.5252 31.6596 50.4666 31.6598C50.4079 31.6601 50.3871 31.6655 50.4202 31.6719ZM55.3886 31.855C55.3702 31.9369 55.3602 32.0091 55.3666 32.0153C55.3729 32.0217 55.393 31.9598 55.4113 31.8779C55.4297 31.7959 55.4396 31.7238 55.4332 31.7175C55.427 31.7113 55.4068 31.7731 55.3886 31.855ZM13.0927 32.2123C13.1238 32.2559 13.1626 32.2999 13.1793 32.3102C13.1959 32.3204 13.1759 32.2849 13.135 32.231C13.0458 32.1142 13.0122 32.0993 13.0927 32.2123ZM23.9988 32.2465C23.9492 32.3087 23.9298 32.3428 23.9556 32.3222C24.0041 32.2831 24.1183 32.1331 24.0996 32.1331C24.0937 32.1331 24.0482 32.1841 23.9988 32.2465ZM13.4266 32.5865C13.5433 32.7038 13.6447 32.7998 13.6521 32.7998C13.6593 32.7998 13.5698 32.7038 13.4532 32.5865C13.3366 32.4691 13.2351 32.3731 13.2278 32.3731C13.2206 32.3731 13.31 32.4691 13.4266 32.5865ZM23.3999 32.8155L23.3199 32.8843L23.4066 32.8268C23.4543 32.7953 23.4932 32.7643 23.4932 32.758C23.4932 32.738 23.482 32.7449 23.3999 32.8155ZM33.9866 32.7731C33.953 32.7876 33.9481 32.7961 33.9732 32.7961C33.9953 32.7961 34.0372 32.7857 34.0666 32.7731C34.1002 32.7587 34.1052 32.7502 34.0799 32.7502C34.0578 32.7502 34.0159 32.7606 33.9866 32.7731ZM42.9066 32.7662C42.9066 32.7819 42.8855 32.7916 42.8599 32.7878C42.8343 32.7839 42.8284 32.786 42.847 32.7923C42.8654 32.7987 42.8727 32.8179 42.8631 32.8351C42.8535 32.8524 42.8678 32.8457 42.8946 32.8204C42.9214 32.7951 42.9351 32.766 42.925 32.7559C42.9148 32.7459 42.9066 32.7505 42.9066 32.7662ZM46.2599 32.8417C46.1602 32.8958 46.1663 32.9183 46.2666 32.8665C46.3106 32.8436 46.3466 32.8195 46.3466 32.8124C46.3466 32.7953 46.3438 32.7963 46.2599 32.8417ZM33.7199 32.8531C33.6863 32.8676 33.6814 32.8761 33.7066 32.8761C33.7286 32.8761 33.7706 32.8657 33.7999 32.8531C33.8335 32.8387 33.8385 32.8302 33.8132 32.8302C33.7913 32.8302 33.7492 32.8406 33.7199 32.8531ZM42.3319 33.2865L42.2266 33.3998L42.3399 33.2943C42.4454 33.1963 42.4655 33.1731 42.4454 33.1731C42.441 33.1731 42.39 33.2241 42.3319 33.2865ZM9.12392 33.3065C9.12392 33.3284 9.14008 33.3884 9.15992 33.4398C9.17976 33.4911 9.19592 33.5151 9.19592 33.493C9.19592 33.4711 9.17976 33.4111 9.15992 33.3598C9.14008 33.3084 9.12392 33.2844 9.12392 33.3065ZM22.5332 33.3198C22.4966 33.3407 22.4786 33.3579 22.4932 33.3579C22.5079 33.3579 22.55 33.3407 22.5866 33.3198C22.6233 33.2988 22.6412 33.2817 22.6266 33.2817C22.6119 33.2817 22.57 33.2988 22.5332 33.3198ZM45.3466 33.4561L45.2399 33.5515L45.3532 33.4667C45.4508 33.3937 45.486 33.3587 45.4599 33.3601C45.4562 33.3604 45.4052 33.4035 45.3466 33.4561ZM40.5732 33.4131C40.5396 33.4276 40.5346 33.4361 40.5599 33.4361C40.5818 33.4361 40.6239 33.4257 40.6532 33.4131C40.6868 33.3987 40.6918 33.3902 40.6666 33.3902C40.6446 33.3902 40.6026 33.4006 40.5732 33.4131ZM9.202 33.5596C9.19896 33.5988 9.33704 34.0049 9.34904 33.9929C9.3548 33.9871 9.3244 33.8814 9.28168 33.7579C9.23896 33.6342 9.20296 33.5451 9.202 33.5596ZM45.1316 33.6331L45.0532 33.7198L45.1399 33.6414C45.2207 33.5684 45.2388 33.5465 45.2183 33.5465C45.2137 33.5465 45.1746 33.5854 45.1316 33.6331ZM41.8254 33.7931L41.7199 33.9065L41.8332 33.8011C41.9386 33.703 41.9588 33.6798 41.9386 33.6798C41.9343 33.6798 41.8833 33.7308 41.8254 33.7931ZM44.746 33.993L44.5199 34.2265L44.7532 34.0004C44.8815 33.8761 44.9866 33.771 44.9866 33.767C44.9866 33.7476 44.9559 33.7764 44.746 33.993ZM54.7231 34.1363C54.6922 34.2276 54.6716 34.307 54.6772 34.3126C54.6828 34.3182 54.7126 34.2479 54.7434 34.1566C54.7743 34.0652 54.795 33.9859 54.7894 33.9803C54.7838 33.9747 54.7538 34.0449 54.7231 34.1363ZM38.5649 34.0713C38.5017 34.0937 38.4546 34.1167 38.4604 34.1225C38.4726 34.1347 38.7199 34.0534 38.7199 34.0372C38.7199 34.0206 38.6895 34.0273 38.5649 34.0713ZM19.7932 34.0982C19.819 34.1049 19.8609 34.1049 19.8866 34.0982C19.9122 34.0915 19.8913 34.086 19.8399 34.086C19.7886 34.086 19.7676 34.0915 19.7932 34.0982ZM16.9932 34.1249C17.019 34.1315 17.0609 34.1315 17.0866 34.1249C17.1122 34.1182 17.0913 34.1126 17.0399 34.1126C16.9886 34.1126 16.9676 34.1182 16.9932 34.1249ZM19.567 34.1254C19.6001 34.1316 19.6481 34.1315 19.6735 34.1247C19.6991 34.118 19.6719 34.1129 19.6132 34.1132C19.5546 34.1135 19.5337 34.119 19.567 34.1254ZM17.2199 34.1519C17.2529 34.1583 17.307 34.1583 17.3399 34.1519C17.3729 34.1455 17.3458 34.1404 17.2799 34.1404C17.2138 34.1404 17.187 34.1455 17.2199 34.1519ZM19.2999 34.1519C19.3329 34.1583 19.387 34.1583 19.4199 34.1519C19.4529 34.1455 19.4258 34.1404 19.3599 34.1404C19.2938 34.1404 19.267 34.1455 19.2999 34.1519ZM17.5399 34.1791C17.5876 34.1851 17.6655 34.1851 17.7132 34.1791C17.7609 34.1732 17.722 34.1683 17.6266 34.1683C17.5313 34.1683 17.4922 34.1732 17.5399 34.1791ZM18.9266 34.1791C18.9743 34.1851 19.0522 34.1851 19.0999 34.1791C19.1476 34.1732 19.1086 34.1683 19.0132 34.1683C18.9178 34.1683 18.879 34.1732 18.9266 34.1791ZM18.194 34.206C18.2642 34.2116 18.3722 34.2115 18.434 34.2059C18.4959 34.2004 18.4386 34.1958 18.3066 34.1959C18.1746 34.1959 18.1239 34.2006 18.194 34.206ZM54.6399 34.6265C54.6766 34.6475 54.7186 34.6646 54.7332 34.6646C54.7479 34.6646 54.73 34.6475 54.6932 34.6265C54.6566 34.6055 54.6146 34.5883 54.5999 34.5883C54.5852 34.5883 54.6033 34.6055 54.6399 34.6265ZM54.8799 34.7321C54.8799 34.7393 54.9279 34.7699 54.9866 34.7998C55.0452 34.8297 55.0932 34.8483 55.0932 34.8409C55.0932 34.8335 55.0452 34.803 54.9866 34.7731C54.9279 34.7431 54.8799 34.7247 54.8799 34.7321ZM9.79512 35.1806C9.84312 35.3142 10.0082 35.6803 10.0167 35.6718C10.0276 35.6611 9.81784 35.1676 9.79336 35.1465C9.78504 35.1391 9.78584 35.1545 9.79512 35.1806ZM43.7599 35.3065C43.73 35.3651 43.7114 35.4131 43.7188 35.4131C43.7262 35.4131 43.7567 35.3651 43.7866 35.3065C43.8166 35.2478 43.835 35.1998 43.8276 35.1998C43.8204 35.1998 43.7898 35.2478 43.7599 35.3065ZM55.6532 35.2297C55.9508 35.5207 56.1823 35.727 56.0132 35.5505C55.9106 35.4435 55.7786 35.3187 55.7199 35.2732C55.6612 35.2278 55.6313 35.2083 55.6532 35.2297ZM40.751 35.3742C40.7062 35.4723 40.7148 35.4932 40.7631 35.4041C40.7857 35.3625 40.7991 35.3235 40.793 35.3174C40.787 35.3111 40.7679 35.3369 40.751 35.3742ZM40.671 35.5609C40.6262 35.659 40.6348 35.6799 40.6831 35.5908C40.7057 35.5491 40.7191 35.51 40.713 35.5039C40.707 35.4979 40.6879 35.5235 40.671 35.5609ZM10.0284 35.7198C10.0284 35.7345 10.0457 35.7764 10.0666 35.813C10.0876 35.8498 10.1047 35.8678 10.1047 35.8531C10.1047 35.8385 10.0876 35.7964 10.0666 35.7598C10.0457 35.7231 10.0284 35.7051 10.0284 35.7198ZM25.6532 35.9065C25.6166 35.9275 25.5986 35.9446 25.6132 35.9446C25.6279 35.9446 25.67 35.9275 25.7066 35.9065C25.7433 35.8855 25.7612 35.8683 25.7466 35.8683C25.7319 35.8683 25.69 35.8855 25.6532 35.9065ZM33.5999 36.0665C33.5633 36.0875 33.5452 36.1046 33.5599 36.1046C33.5746 36.1046 33.6166 36.0875 33.6532 36.0665C33.69 36.0455 33.7079 36.0283 33.6932 36.0283C33.6786 36.0283 33.6366 36.0455 33.5999 36.0665ZM48.3545 36.0463C48.4689 36.0513 48.6489 36.0513 48.7545 36.0462C48.8601 36.0412 48.7666 36.0371 48.5466 36.0371C48.3266 36.0372 48.2401 36.0412 48.3545 36.0463ZM49.0602 36.0719C49.0934 36.0783 49.1414 36.0782 49.167 36.0715C49.1924 36.0647 49.1652 36.0596 49.1066 36.0598C49.0479 36.0601 49.0271 36.0655 49.0602 36.0719ZM43.4206 36.2398C43.4206 36.3057 43.4257 36.3327 43.4321 36.2998C43.4385 36.2668 43.4385 36.2127 43.4321 36.1798C43.4257 36.1468 43.4206 36.1739 43.4206 36.2398ZM10.3466 36.3825C10.3466 36.4115 10.639 36.9865 10.6537 36.9865C10.6657 36.9865 10.382 36.4025 10.3569 36.3753C10.3513 36.3692 10.3466 36.3724 10.3466 36.3825ZM32.5599 36.5465C32.5233 36.5675 32.5052 36.5846 32.5199 36.5846C32.5346 36.5846 32.5766 36.5675 32.6132 36.5465C32.65 36.5255 32.6679 36.5083 32.6532 36.5083C32.6386 36.5083 32.5966 36.5255 32.5599 36.5465ZM24.1332 36.5998C24.0966 36.6207 24.0786 36.6379 24.0932 36.6379C24.1079 36.6379 24.15 36.6207 24.1866 36.5998C24.2233 36.5788 24.2412 36.5617 24.2266 36.5617C24.2119 36.5617 24.17 36.5788 24.1332 36.5998ZM32.1599 36.7331C32.094 36.7684 32.0519 36.7974 32.0666 36.7974C32.0812 36.7974 32.1473 36.7684 32.2132 36.7331C32.2793 36.6977 32.3212 36.6689 32.3066 36.6689C32.2919 36.6689 32.2258 36.6977 32.1599 36.7331ZM23.7866 36.7598C23.75 36.7807 23.7319 36.7979 23.7466 36.7979C23.7612 36.7979 23.8033 36.7807 23.8399 36.7598C23.8766 36.7388 23.8946 36.7217 23.8799 36.7217C23.8652 36.7217 23.8233 36.7388 23.7866 36.7598ZM43.5732 36.7281C43.5732 36.7327 43.6122 36.7718 43.6599 36.8148L43.7466 36.8931L43.6682 36.8065C43.5953 36.7257 43.5732 36.7075 43.5732 36.7281ZM46.5855 36.8017L46.4932 36.8836L46.5932 36.8119C46.6817 36.7484 46.7103 36.7198 46.6855 36.7198C46.6814 36.7198 46.6364 36.7566 46.5855 36.8017ZM40.4062 37.0931C40.4062 37.1444 40.4116 37.1654 40.4183 37.1398C40.425 37.1142 40.425 37.0721 40.4183 37.0465C40.4116 37.0207 40.4062 37.0417 40.4062 37.0931ZM22.9599 37.1598C22.9233 37.1807 22.9052 37.1979 22.9199 37.1979C22.9346 37.1979 22.9766 37.1807 23.0132 37.1598C23.05 37.1388 23.0679 37.1217 23.0532 37.1217C23.0386 37.1217 22.9966 37.1388 22.9599 37.1598ZM45.8527 37.4465L45.5866 37.7198L45.8599 37.4535C46.0103 37.3073 46.1332 37.1842 46.1332 37.1803C46.1332 37.161 46.0999 37.1926 45.8527 37.4465ZM30.9266 37.3348C30.8129 37.3929 30.7199 37.4463 30.7199 37.4537C30.7199 37.4657 31.1439 37.2617 31.171 37.2367C31.2089 37.2019 31.1052 37.2435 30.9266 37.3348ZM56.0321 37.4545C55.9703 37.5788 55.9206 37.6894 55.9212 37.7001C55.922 37.711 55.9767 37.6135 56.043 37.4836C56.1092 37.3539 56.159 37.2433 56.1537 37.238C56.1484 37.2327 56.0937 37.3302 56.0321 37.4545ZM44.5599 37.3465C44.5966 37.3675 44.6386 37.3846 44.6532 37.3846C44.6679 37.3846 44.65 37.3675 44.6132 37.3465C44.5766 37.3255 44.5346 37.3083 44.5199 37.3083C44.5052 37.3083 44.5233 37.3255 44.5599 37.3465ZM36.3132 37.7252C36.3463 37.7316 36.4002 37.7316 36.4332 37.7252C36.4663 37.719 36.4393 37.7137 36.3732 37.7137C36.3073 37.7137 36.2802 37.719 36.3132 37.7252ZM11.0742 37.7531C11.1414 37.8787 11.367 38.2398 11.3782 38.2398C11.3862 38.2398 11.3753 38.2127 11.3542 38.1798C11.3329 38.1468 11.2641 38.0327 11.2014 37.9265C11.1385 37.8201 11.0818 37.7331 11.0753 37.7331C11.0687 37.7331 11.0682 37.7422 11.0742 37.7531ZM29.8599 37.8814C29.7609 37.9323 29.6799 37.9798 29.6799 37.9871C29.6799 37.9945 29.7639 37.9582 29.8666 37.9065C29.9692 37.8548 30.0532 37.8066 30.0532 37.7994C30.0532 37.7815 30.0607 37.7783 29.8599 37.8814ZM35.5466 37.9598C35.51 37.9807 35.4919 37.9979 35.5066 37.9979C35.5212 37.9979 35.5633 37.9807 35.5999 37.9598C35.6366 37.9388 35.6546 37.9217 35.6399 37.9217C35.6252 37.9217 35.5833 37.9388 35.5466 37.9598ZM52.7302 38.2398C52.7302 38.4231 52.7345 38.4982 52.7396 38.4065C52.7449 38.3148 52.7449 38.1647 52.7396 38.0731C52.7345 37.9814 52.7302 38.0564 52.7302 38.2398ZM37.0666 38.2265C37.1906 38.3511 37.298 38.4531 37.3054 38.4531C37.3127 38.4531 37.2172 38.3511 37.0932 38.2265C36.9692 38.1017 36.8618 37.9998 36.8545 37.9998C36.8471 37.9998 36.9426 38.1017 37.0666 38.2265ZM21.1399 38.0684C21.0402 38.1225 21.0463 38.1449 21.1466 38.0931C21.1906 38.0703 21.2266 38.046 21.2266 38.0391C21.2266 38.0219 21.2238 38.023 21.1399 38.0684ZM28.6599 38.5217C28.5602 38.5758 28.5663 38.5983 28.6666 38.5465C28.7106 38.5236 28.7466 38.4995 28.7466 38.4924C28.7466 38.4753 28.7438 38.4762 28.6599 38.5217ZM20.1532 38.5883C20.0983 38.6172 20.0532 38.647 20.0532 38.6543C20.0532 38.6615 20.1012 38.643 20.1599 38.6131C20.2186 38.5831 20.2666 38.5529 20.2666 38.5459C20.2666 38.5284 20.2663 38.5286 20.1532 38.5883ZM37.3599 38.5414C37.3599 38.546 37.399 38.5851 37.4466 38.6281L37.5332 38.7065L37.455 38.6198C37.382 38.539 37.3599 38.5209 37.3599 38.5414ZM11.3466 38.6419C11.1884 38.7615 11.1671 38.7953 11.3154 38.6913C11.4274 38.6127 11.4886 38.558 11.4615 38.5606C11.457 38.5609 11.4052 38.5975 11.3466 38.6419ZM55.2799 38.8798C55.25 38.9385 55.2314 38.9865 55.2388 38.9865C55.2462 38.9865 55.2767 38.9385 55.3066 38.8798C55.3366 38.8211 55.355 38.7731 55.3476 38.7731C55.3404 38.7731 55.3098 38.8211 55.2799 38.8798ZM41.1999 38.8604C41.1999 38.8644 41.2929 38.9575 41.4066 39.0671L41.6132 39.2665L41.414 39.0598C41.2287 38.8678 41.1999 38.8409 41.1999 38.8604ZM10.6132 39.1884C10.4886 39.2846 10.3686 39.3823 10.3466 39.4055C10.3246 39.4289 10.4295 39.3542 10.5799 39.2398C10.8204 39.0569 10.8729 39.0122 10.8466 39.0134C10.843 39.0135 10.7378 39.0924 10.6132 39.1884ZM19.1932 39.1084C19.0935 39.1625 19.0996 39.1849 19.1999 39.1331C19.2439 39.1103 19.2799 39.086 19.2799 39.0791C19.2799 39.0619 19.277 39.063 19.1932 39.1084ZM27.4599 39.1884C27.3602 39.2425 27.3663 39.2649 27.4666 39.2131C27.5106 39.1903 27.5466 39.166 27.5466 39.1591C27.5466 39.1419 27.5438 39.143 27.4599 39.1884ZM33.6062 39.6798C33.6062 39.7311 33.6116 39.7521 33.6183 39.7265C33.625 39.7007 33.625 39.6588 33.6183 39.6331C33.6116 39.6075 33.6062 39.6284 33.6062 39.6798ZM9.80664 39.83C9.69288 39.926 9.59992 40.0134 9.59992 40.0241C9.59992 40.0348 9.65688 39.9931 9.72664 39.9314C9.79624 39.8699 9.89528 39.7823 9.94664 39.7371C10.1198 39.5843 10.015 39.6539 9.80664 39.83ZM33.6062 40.0265C33.6062 40.0777 33.6116 40.0988 33.6183 40.0731C33.625 40.0475 33.625 40.0054 33.6183 39.9798C33.6116 39.9542 33.6062 39.9751 33.6062 40.0265ZM43.3866 40.4918C43.3866 40.4991 43.4226 40.5236 43.4666 40.5465C43.5106 40.5692 43.5466 40.5819 43.5466 40.5745C43.5466 40.5671 43.5106 40.5425 43.4666 40.5198C43.4226 40.4971 43.3866 40.4844 43.3866 40.4918ZM38.7218 40.5465C38.7218 40.5611 38.739 40.6031 38.7599 40.6398C38.7809 40.6764 38.798 40.6945 38.798 40.6798C38.798 40.6651 38.7809 40.6231 38.7599 40.5865C38.739 40.5499 38.7218 40.5318 38.7218 40.5465ZM52.0188 40.9206C51.9794 41.0007 51.9529 41.0665 51.9598 41.0665C51.9777 41.0665 52.1122 40.7966 52.1002 40.7846C52.0948 40.7791 52.0582 40.8403 52.0188 40.9206ZM44.5866 41.1065C44.6233 41.1274 44.6652 41.1446 44.6799 41.1446C44.6946 41.1446 44.6766 41.1274 44.6399 41.1065C44.6033 41.0855 44.5612 41.0683 44.5466 41.0683C44.5319 41.0683 44.55 41.0855 44.5866 41.1065ZM46.0799 41.702C46.1018 41.7156 46.15 41.7346 46.1866 41.7444C46.2329 41.7569 46.241 41.7548 46.2132 41.7375C46.1913 41.7239 46.1433 41.7049 46.1066 41.6951C46.0602 41.6827 46.0521 41.6847 46.0799 41.702ZM51.3458 41.8998L51.1599 42.0931L51.3532 41.9071C51.5329 41.7345 51.5588 41.7065 51.5393 41.7065C51.5351 41.7065 51.4481 41.7934 51.3458 41.8998ZM13.7399 42.3763C13.649 42.4343 13.6196 42.4735 13.6999 42.4294C13.761 42.3958 13.8569 42.3215 13.8399 42.3211C13.8326 42.3209 13.7876 42.3457 13.7399 42.3763ZM38.5866 42.403C38.4937 42.4846 38.4937 42.4846 38.5791 42.4278C38.6263 42.3963 38.6721 42.3591 38.6807 42.3452C38.7065 42.3036 38.685 42.3167 38.5866 42.403ZM50.6399 42.3865C50.6033 42.4075 50.5852 42.4246 50.5999 42.4246C50.6146 42.4246 50.6566 42.4075 50.6932 42.3865C50.73 42.3655 50.7479 42.3483 50.7332 42.3483C50.7186 42.3483 50.6766 42.3655 50.6399 42.3865ZM49.0199 42.4715C49.0455 42.4782 49.0876 42.4782 49.1132 42.4715C49.139 42.4647 49.1178 42.4593 49.0666 42.4593C49.0153 42.4593 48.9943 42.4647 49.0199 42.4715ZM49.2332 42.4982C49.259 42.5049 49.3009 42.5049 49.3266 42.4982C49.3522 42.4915 49.3313 42.486 49.2799 42.486C49.2286 42.486 49.2076 42.4915 49.2332 42.4982ZM52.7583 42.5665L52.6799 42.6531L52.7666 42.5748C52.8474 42.5019 52.8655 42.4798 52.8449 42.4798C52.8402 42.4798 52.8014 42.5188 52.7583 42.5665ZM49.5132 42.5252C49.5463 42.5316 49.6002 42.5316 49.6332 42.5252C49.6663 42.519 49.6393 42.5137 49.5732 42.5137C49.5073 42.5137 49.4802 42.519 49.5132 42.5252ZM52.5449 42.8065L52.4666 42.8931L52.5532 42.8148C52.634 42.7419 52.6522 42.7198 52.6316 42.7198C52.627 42.7198 52.5879 42.7588 52.5449 42.8065ZM34.8862 42.8265C34.8862 42.8777 34.8916 42.8988 34.8983 42.8731C34.905 42.8475 34.905 42.8054 34.8983 42.7798C34.8916 42.7542 34.8862 42.7751 34.8862 42.8265ZM11.8132 42.9465C11.863 42.9977 11.9097 43.0398 11.917 43.0398C11.9244 43.0398 11.8897 42.9977 11.8399 42.9465C11.7902 42.8951 11.7434 42.8531 11.7361 42.8531C11.7287 42.8531 11.7634 42.8951 11.8132 42.9465ZM34.9127 43.0931C34.9127 43.1444 34.9183 43.1654 34.925 43.1398C34.9316 43.1142 34.9316 43.0721 34.925 43.0465C34.9183 43.0207 34.9127 43.0417 34.9127 43.0931ZM51.8796 43.4998L51.4266 43.9598L51.8866 43.5068C52.1396 43.2575 52.3466 43.0505 52.3466 43.0468C52.3466 43.0278 52.3006 43.0724 51.8796 43.4998ZM11.9466 43.1014C11.9466 43.106 11.9855 43.1451 12.0332 43.1881L12.1199 43.2665L12.0415 43.1798C11.9686 43.099 11.9466 43.0809 11.9466 43.1014ZM20.2532 43.7487L20.1732 43.8175L20.2599 43.7601C20.3076 43.7286 20.3466 43.6977 20.3466 43.6913C20.3466 43.6713 20.3353 43.6783 20.2532 43.7487ZM54.8398 43.8889C54.7958 43.9158 54.6892 44.0251 54.603 44.1316C50.0054 49.8219 42.0564 53.5239 33.1732 54.1121C32.4718 54.1585 29.5575 54.1587 28.8532 54.1123C23.1265 53.7351 17.945 52.0731 13.8015 49.2841C13.2914 48.9409 13.2534 48.9281 12.955 49.0007C12.5649 49.0956 12.3986 49.4388 12.6023 49.7286C12.7201 49.8963 14.1122 50.8553 15.0258 51.3983C26.6345 58.2967 43.7772 56.4475 53.063 47.2951C54.0066 46.3649 55.3695 44.7604 55.4982 44.4279C55.6399 44.062 55.1772 43.6831 54.8398 43.8889ZM51.1849 44.1665L51.1066 44.2531L51.1932 44.1748C51.274 44.1019 51.2922 44.0798 51.2716 44.0798C51.267 44.0798 51.2279 44.1188 51.1849 44.1665ZM50.9585 44.3665L50.8666 44.4665L50.9666 44.3745C51.0596 44.2891 51.0788 44.2665 51.0585 44.2665C51.054 44.2665 51.009 44.3115 50.9585 44.3665ZM19.3466 44.3887L19.2666 44.4575L19.3532 44.4001C19.4009 44.3686 19.4399 44.3377 19.4399 44.3313C19.4399 44.3113 19.4286 44.3183 19.3466 44.3887ZM46.1996 45.0566C46.0972 45.1246 46.0012 45.1927 45.9866 45.2081C45.9574 45.239 46.0471 45.1854 46.2534 45.0491L46.387 44.9609L46.7734 45.0267C46.986 45.063 47.1839 45.0915 47.2132 45.09C47.2426 45.0886 47.1046 45.0593 46.9066 45.0249C46.7086 44.9905 46.5105 44.9558 46.4663 44.9478C46.4017 44.9359 46.3497 44.9572 46.1996 45.0566ZM47.3132 45.1115C47.339 45.1182 47.3809 45.1182 47.4066 45.1115C47.4322 45.1047 47.4113 45.0993 47.3599 45.0993C47.3086 45.0993 47.2876 45.1047 47.3132 45.1115ZM47.4999 45.1382C47.5255 45.1449 47.5676 45.1449 47.5932 45.1382C47.619 45.1315 47.5978 45.126 47.5466 45.126C47.4953 45.126 47.4743 45.1315 47.4999 45.1382ZM49.1532 45.3249C49.179 45.3315 49.2209 45.3315 49.2466 45.3249C49.2722 45.3182 49.2513 45.3126 49.1999 45.3126C49.1486 45.3126 49.1276 45.3182 49.1532 45.3249ZM49.487 45.3519C49.5201 45.3583 49.5681 45.3582 49.5935 45.3515C49.6191 45.3447 49.5919 45.3396 49.5332 45.3398C49.4746 45.3401 49.4537 45.3455 49.487 45.3519ZM45.4466 45.5495C45.3558 45.6078 45.3263 45.6468 45.4066 45.6027C45.4678 45.5691 45.5636 45.495 45.5466 45.4943C45.5393 45.4942 45.4943 45.519 45.4466 45.5495ZM45.2196 45.6897C45.0916 45.7686 45.0558 45.8057 45.1599 45.7519C45.2434 45.7086 45.3562 45.6281 45.3332 45.6281C45.3258 45.6281 45.2748 45.6558 45.2196 45.6897ZM44.3932 46.175C44.2935 46.2291 44.2996 46.2516 44.3999 46.1998C44.4439 46.1771 44.4799 46.1527 44.4799 46.1457C44.4799 46.1286 44.477 46.1295 44.3932 46.175ZM16.8399 46.2287L16.7599 46.2975L16.8466 46.2401C16.8943 46.2086 16.9332 46.1777 16.9332 46.1713C16.9332 46.1513 16.922 46.1583 16.8399 46.2287ZM44.1266 46.3215C44.0423 46.3651 43.9732 46.4067 43.9732 46.4139C43.9732 46.4212 44.0452 46.3908 44.1332 46.3465C44.2212 46.302 44.2932 46.2598 44.2932 46.2527C44.2932 46.235 44.2982 46.2329 44.1266 46.3215ZM43.6999 46.5484C43.6002 46.6025 43.6063 46.6249 43.7066 46.5731C43.7506 46.5503 43.7866 46.526 43.7866 46.5191C43.7866 46.5019 43.7838 46.503 43.6999 46.5484ZM43.0132 46.8931C42.8593 46.9723 42.7452 47.0371 42.7599 47.0371C42.7746 47.0371 42.9126 46.9723 43.0666 46.8931C43.2206 46.814 43.3346 46.7492 43.3199 46.7492C43.3052 46.7492 43.1673 46.814 43.0132 46.8931ZM42.6132 47.0798C42.5766 47.1007 42.5586 47.1179 42.5732 47.1179C42.5879 47.1179 42.63 47.1007 42.6666 47.0798C42.7033 47.0588 42.7212 47.0417 42.7066 47.0417C42.6919 47.0417 42.65 47.0588 42.6132 47.0798ZM41.8932 47.3998C41.8566 47.4207 41.8386 47.4379 41.8532 47.4379C41.8679 47.4379 41.91 47.4207 41.9466 47.3998C41.9833 47.3788 42.0012 47.3617 41.9866 47.3617C41.9719 47.3617 41.93 47.3788 41.8932 47.3998ZM21.5396 47.5031C21.4116 47.5819 21.3758 47.619 21.4799 47.5652C21.5634 47.522 21.6762 47.4415 21.6532 47.4415C21.6458 47.4414 21.5948 47.4692 21.5396 47.5031ZM22.3999 47.474C22.3999 47.4924 22.7505 47.6315 22.7638 47.6182C22.7695 47.6124 22.7111 47.583 22.6338 47.5529C22.5566 47.5228 22.4722 47.4899 22.4466 47.4795C22.4209 47.4692 22.3999 47.4668 22.3999 47.474ZM41.3999 47.6017C41.3412 47.6299 41.3233 47.6455 41.3599 47.6364C41.4354 47.6175 41.574 47.5481 41.5332 47.5495C41.5186 47.55 41.4586 47.5735 41.3999 47.6017ZM21.2999 47.6417C21.2002 47.6958 21.2063 47.7183 21.3066 47.6665C21.3506 47.6436 21.3866 47.6195 21.3866 47.6124C21.3866 47.5953 21.3838 47.5963 21.2999 47.6417ZM41.1599 47.694C41.0932 47.7262 41.091 47.7299 41.1466 47.7163C41.2222 47.6979 41.3071 47.6545 41.2666 47.6551C41.2519 47.6553 41.2039 47.6729 41.1599 47.694ZM20.3199 48.1731C20.1366 48.267 19.9958 48.3443 20.007 48.3451C20.0353 48.347 20.6666 48.0291 20.6666 48.0129C20.6666 47.9947 20.6879 47.9849 20.3199 48.1731ZM39.8266 48.1598C39.7092 48.2015 39.6258 48.2366 39.6412 48.2377C39.6564 48.2388 39.7705 48.2047 39.8945 48.1619C40.0185 48.1188 40.1018 48.0838 40.0799 48.0839C40.0578 48.0839 39.9439 48.118 39.8266 48.1598ZM18.2666 48.1183C18.2666 48.1257 18.3026 48.1503 18.3466 48.1731C18.3906 48.1959 18.4266 48.2084 18.4266 48.2012C18.4266 48.1939 18.3906 48.1692 18.3466 48.1465C18.3026 48.1236 18.2666 48.1111 18.2666 48.1183ZM24.4132 48.2131C24.4866 48.2401 24.5646 48.2623 24.5866 48.2623C24.6086 48.2623 24.5666 48.2401 24.4932 48.2131C24.4199 48.186 24.3418 48.1639 24.3199 48.1639C24.2978 48.1639 24.3399 48.186 24.4132 48.2131ZM39.4399 48.2798C39.3886 48.2996 39.3646 48.3158 39.3866 48.3158C39.4086 48.3158 39.4686 48.2996 39.5199 48.2798C39.5713 48.2599 39.5953 48.2438 39.5732 48.2438C39.5513 48.2438 39.4913 48.2599 39.4399 48.2798ZM24.7199 48.3065C24.7713 48.3262 24.8313 48.3423 24.8532 48.3423C24.8753 48.3423 24.8513 48.3262 24.7999 48.3065C24.7486 48.2867 24.6886 48.2705 24.6666 48.2705C24.6446 48.2705 24.6686 48.2867 24.7199 48.3065ZM26.5066 48.7731C26.5433 48.7849 26.5972 48.7945 26.6266 48.7945C26.6689 48.7945 26.666 48.79 26.6132 48.7731C26.5766 48.7614 26.5226 48.7518 26.4932 48.7518C26.451 48.7518 26.4538 48.7563 26.5066 48.7731ZM37.5466 48.7731C37.4938 48.79 37.491 48.7945 37.5332 48.7945C37.5626 48.7945 37.6166 48.7849 37.6532 48.7731C37.706 48.7563 37.7089 48.7518 37.6666 48.7518C37.6372 48.7518 37.5833 48.7614 37.5466 48.7731ZM26.8266 48.8417C26.9073 48.8615 27.0273 48.8839 27.0932 48.8915C27.1593 48.8988 27.1113 48.8819 26.9866 48.8535C26.7316 48.7958 26.5998 48.786 26.8266 48.8417ZM37.0932 48.8665C37.0126 48.8852 36.9766 48.9006 37.0132 48.9009C37.05 48.9011 37.1399 48.8859 37.2132 48.867C37.3863 48.8225 37.2847 48.822 37.0932 48.8665ZM36.7332 48.9331C36.6618 48.9513 36.6604 48.9535 36.7199 48.9535C36.7566 48.9535 36.8226 48.9443 36.8666 48.9331C36.938 48.915 36.9394 48.9127 36.8799 48.9127C36.8433 48.9127 36.7772 48.9219 36.7332 48.9331ZM29.4466 49.2449C29.4722 49.2515 29.5143 49.2515 29.5399 49.2449C29.5655 49.2382 29.5446 49.2326 29.4932 49.2326C29.4418 49.2326 29.4209 49.2382 29.4466 49.2449ZM34.6199 49.2449C34.6455 49.2515 34.6876 49.2515 34.7132 49.2449C34.739 49.2382 34.7178 49.2326 34.6666 49.2326C34.6153 49.2326 34.5943 49.2382 34.6199 49.2449ZM29.7132 49.2715C29.739 49.2782 29.7809 49.2782 29.8066 49.2715C29.8322 49.2647 29.8113 49.2593 29.7599 49.2593C29.7086 49.2593 29.6876 49.2647 29.7132 49.2715ZM34.3532 49.2715C34.379 49.2782 34.4209 49.2782 34.4466 49.2715C34.4722 49.2647 34.4513 49.2593 34.3999 49.2593C34.3486 49.2593 34.3276 49.2647 34.3532 49.2715ZM30.0199 49.2987C30.0529 49.3049 30.107 49.3049 30.1399 49.2987C30.1729 49.2923 30.1458 49.287 30.0799 49.287C30.014 49.287 29.987 49.2923 30.0199 49.2987ZM34.0199 49.2987C34.0529 49.3049 34.107 49.3049 34.1399 49.2987C34.1729 49.2923 34.1458 49.287 34.0799 49.287C34.014 49.287 33.987 49.2923 34.0199 49.2987ZM30.3937 49.3257C30.4417 49.3318 30.5137 49.3316 30.5537 49.3255C30.5938 49.3195 30.5546 49.3145 30.4666 49.3147C30.3786 49.3148 30.3458 49.3198 30.3937 49.3257ZM33.6204 49.3257C33.6684 49.3318 33.7404 49.3316 33.7804 49.3255C33.8204 49.3195 33.7812 49.3145 33.6932 49.3147C33.6052 49.3148 33.5724 49.3198 33.6204 49.3257ZM30.8466 49.3526C30.9089 49.3582 31.011 49.3582 31.0732 49.3526C31.1356 49.347 31.0846 49.3425 30.9599 49.3425C30.8353 49.3425 30.7842 49.347 30.8466 49.3526ZM33.0866 49.3526C33.1489 49.3582 33.251 49.3582 33.3132 49.3526C33.3756 49.347 33.3246 49.3425 33.1999 49.3425C33.0753 49.3425 33.0242 49.347 33.0866 49.3526ZM31.7948 49.3798C31.9679 49.3844 32.2439 49.3844 32.4081 49.3796C32.5722 49.375 32.4306 49.3711 32.0932 49.3711C31.7559 49.3713 31.6215 49.375 31.7948 49.3798Z" fill="#448473"/>
<path fill-rule="evenodd" clip-rule="evenodd" d="M34.7467 1.11788C34.2966 1.18396 34.0915 1.3118 33.9347 1.62428C33.3378 2.8142 33.44 4.62364 34.2299 6.84572C34.5493 7.74396 34.96 8.61596 34.96 8.39564C34.96 8.34956 35.3432 7.40108 35.5454 6.94652C36.2426 5.3798 37.415 3.54684 38.5693 2.21916C38.7003 2.06844 38.8029 1.94092 38.7971 1.93564C38.7914 1.93036 38.6006 1.86412 38.3733 1.78844C36.8674 1.28716 35.4187 1.01932 34.7467 1.11788ZM41.9467 5.65436C44.7168 7.89404 46.8046 9.69004 48.9333 11.6651C51.8341 14.3563 54.5227 17.1521 56.275 19.2998C56.4336 19.4942 56.5674 19.6531 56.5722 19.6531C56.6104 19.6531 55.9611 18.1358 55.6366 17.467C52.9058 11.839 47.9568 7.41628 42.2667 5.51916C41.4189 5.23644 41.4261 5.2334 41.9467 5.65436ZM12.76 10.5865C12.5845 10.7625 12.4469 10.9065 12.4542 10.9065C12.4614 10.9065 12.6112 10.7625 12.7867 10.5865C12.9622 10.4105 13.0998 10.2665 13.0925 10.2665C13.0851 10.2665 12.9355 10.4105 12.76 10.5865ZM34.3867 14.6649C43.8846 17.8558 50.9222 21.7732 53.6118 25.3665C53.6968 25.4801 53.7696 25.5731 53.7734 25.5731C53.8659 25.5731 53.4344 24.2152 53.1549 23.6265C50.7904 18.6489 43.8795 15.2859 34.0035 14.3068C33.6314 14.27 33.2834 14.2408 33.2301 14.2419C33.1638 14.2432 33.5285 14.3766 34.3867 14.6649ZM22.4627 16.7844C22.2414 16.9518 21.915 17.3366 21.5667 17.8401C21.4122 18.0636 21.3565 18.1694 21.296 18.355C21.2824 18.3969 21.2592 18.3856 21.1267 18.2718C20.383 17.6331 18.8826 16.8531 18.3976 16.8531C18.1427 16.8531 17.6661 17.3409 17.0693 18.2123C16.5683 18.9435 16.6971 19.6368 17.412 20.0587C18.2853 20.5739 18.9038 21.1723 19.0698 21.6622C19.1309 21.8428 19.115 21.8452 19.5075 21.5982C20.6952 20.851 21.4251 20.194 21.6835 19.6398C21.7176 19.5665 21.7477 19.5025 21.7504 19.4979C21.7608 19.4788 22.2675 19.8035 22.4978 19.9764C22.8885 20.27 23.2122 20.654 23.3229 20.9548C23.3482 21.0236 23.3768 21.0891 23.3864 21.1004C23.396 21.1118 23.5542 21.027 23.7379 20.912C25.295 19.9366 25.9861 19.0971 25.7067 18.5201C25.6552 18.4134 25.2565 17.9985 25.0134 17.7985C24.527 17.398 23.6288 16.9236 22.9771 16.7228C22.7066 16.6395 22.6445 16.6468 22.4627 16.7844ZM59.1467 18.9419C59.1467 18.9484 59.2438 19.1142 59.3627 19.3102C60.8062 21.6905 61.6051 25.1062 61.6114 28.9243C61.6125 29.5574 61.6157 30.0729 61.6187 30.07C61.6312 30.0576 61.8738 29.064 61.9842 28.5731C63.1176 23.5347 62.4954 20.1616 60.2533 19.191C59.9157 19.0449 59.1467 18.8718 59.1467 18.9419ZM35.7733 22.5758C32.7677 22.7638 30.684 24.0864 29.4962 26.5598C29.249 27.0747 28.9565 28.004 28.8934 28.475L28.8744 28.6171L29.0973 28.4662C31.5698 26.7916 37.1646 26.8774 44.9733 28.7096C47.0706 29.2017 49.916 29.9857 49.7573 30.0276C49.7221 30.0371 49.4773 30.0529 49.2133 30.0632C44.8582 30.2307 39.5344 31.138 35.0133 32.4832C27.3939 34.7502 20.1718 38.1516 13.2064 42.7537C12.3453 43.3227 12.2344 43.3886 12.1931 43.3563C12.1517 43.3238 12.1504 43.3246 12.1811 43.3638C12.2114 43.4027 12.1754 43.4353 11.8744 43.6417C10.889 44.3176 9.35232 45.4492 8.56384 46.0796L8.18096 46.3857L8.61856 46.6009C10.839 47.6923 12.1965 47.922 14.0347 47.5176C15.2088 47.2593 15.9907 46.8646 17.36 45.8392C25.9488 39.407 34.649 34.9236 42.58 32.843C42.9909 32.7352 42.9954 32.7382 42.7403 32.9478C40.6934 34.6299 39.9088 36.7032 40.749 38.2099C41.679 39.8777 45.4008 41.8329 48.72 42.3974C50.1851 42.6465 50.7275 42.5369 51.376 41.8609C52.3262 40.8702 52.9616 38.6192 52.6333 37.4059C52.5117 36.9564 52.4565 36.8806 52.1867 36.792C49.9386 36.0537 48.2238 35.8598 47.4533 36.2566C46.9814 36.4996 46.4088 36.927 45.9272 37.3956L45.601 37.7131L45.4738 37.6812C45.1022 37.5881 44.38 37.278 43.9707 37.036C43.292 36.6344 43.2562 36.1921 43.8222 35.2022C45.1629 32.8576 47.9578 31.618 51.9133 31.6142L52.9866 31.6131L52.9875 31.4931C52.9896 31.1947 52.8725 28.7808 52.8534 28.7331C52.7966 28.5904 50.4962 27.2086 48.96 26.3945C44.0845 23.8107 39.1014 22.3676 35.7733 22.5758ZM21.72 23.0822C17.8557 23.278 15.0597 24.4008 13.4576 26.3998C11.5576 28.7707 12.0181 32.0003 14.4446 33.3232C17.3334 34.8977 22.7299 34.1908 24.1382 32.0531C24.9189 30.8681 24.8829 29.8664 24.003 28.2931C23.8432 28.0072 23.7155 27.7696 23.7195 27.7652C23.7235 27.7609 23.8213 27.7345 23.9368 27.7067C25.1675 27.4096 25.871 26.6198 26.0982 25.2801C26.2046 24.6531 26.1173 23.388 25.965 23.3504C25.776 23.3035 24.4966 23.1649 23.84 23.1201C23.4056 23.0905 22.0387 23.066 21.72 23.0822ZM23.4797 27.8126C23.5611 27.9444 23.5962 28.884 23.5339 29.268C23.2795 30.8366 22.2901 31.3822 19.5018 31.4912C16.4952 31.6086 14.029 31.002 14.1426 30.1731C14.3122 28.936 18.0218 27.963 23.1733 27.8043C23.2979 27.8004 23.4142 27.7948 23.4317 27.792C23.4493 27.7889 23.4707 27.7982 23.4797 27.8126ZM4.4104 28.5331C4.4104 28.7312 4.41472 28.8121 4.41984 28.7131C4.42496 28.6142 4.42496 28.4521 4.41984 28.3531C4.41472 28.2542 4.4104 28.3352 4.4104 28.5331ZM57.3667 35.4582C57.3923 35.4649 57.4344 35.4649 57.46 35.4582C57.4856 35.4515 57.4646 35.446 57.4133 35.446C57.3619 35.446 57.341 35.4515 57.3667 35.4582ZM35.9686 37.8126C35.4757 37.9795 34.3482 38.5843 34.065 38.8336C33.5835 39.2572 33.4709 40.0657 33.8221 40.5769C33.871 40.6483 33.9894 40.8204 34.0853 40.9598C34.6672 41.8057 34.9878 42.6998 34.9102 43.2598L34.889 43.4131H34.9614C35.0806 43.4131 35.82 43.3096 36.1958 43.2401C38.2405 42.8625 39.2312 42.2244 39.0397 41.4086C38.824 40.4896 38.0272 39.2016 37.0942 38.2636C36.5109 37.6772 36.4456 37.651 35.9686 37.8126ZM31.0203 55.5923C31.061 55.5984 31.121 55.5982 31.1538 55.592C31.1866 55.5856 31.1533 55.5806 31.08 55.5808C31.0067 55.5809 30.9798 55.5862 31.0203 55.5923Z" fill="#F3EB94"/>
</svg>
